<svg height="1024" node-id="1" sillyvg="true" template-height="1024" template-width="1024" version="1.1" viewBox="0 0 1024 1024" width="1024" xmlns="http://www.w3.org/2000/svg" xmlns:xlink="http://www.w3.org/1999/xlink"><defs node-id="73"></defs><path d="M 0.00 0.00 L 1024.00 0.00 L 1024.00 1024.00 L 0.00 1024.00 Z" fill="#efefee" fill-rule="nonzero" node-id="75" stroke="none" target-height="1024" target-width="1024" target-x="0" target-y="0"/><path d="M 91.00 780.10 L 90.60 787.10 L 90.80 792.50 L 91.50 798.40 L 93.00 805.70 L 94.40 810.50 L 98.70 821.40 L 101.60 826.80 L 105.20 832.40 L 109.70 838.30 L 113.20 842.30 L 122.00 850.50 L 127.30 854.60 L 132.70 858.30 L 138.80 861.90 L 145.70 865.50 L 153.40 869.00 L 161.00 871.90 L 169.40 874.70 L 178.90 877.40 L 189.30 879.80 L 199.50 881.70 L 210.70 883.30 L 223.10 884.60 L 236.70 885.50 L 249.90 886.00 L 264.40 886.00 L 280.10 885.60 L 297.30 884.70 L 313.90 883.30 L 331.90 881.40 L 351.40 878.90 L 372.40 875.70 L 389.20 875.30 L 406.00 875.60 L 422.80 876.40 L 456.60 879.30 L 499.50 884.60 L 552.40 891.60 L 597.80 896.80 L 635.60 899.50 L 654.70 900.20 L 674.30 900.40 L 694.40 899.90 L 709.40 899.10 L 724.70 897.90 L 740.40 896.20 L 756.50 894.00 L 771.20 891.40 L 784.50 888.70 L 796.50 885.80 L 807.30 882.80 L 818.30 879.30 L 828.20 875.80 L 837.00 872.20 L 844.80 868.60 L 852.70 864.50 L 859.70 860.40 L 865.80 856.30 L 871.10 852.40 L 880.80 843.70 L 888.00 835.40 L 892.00 829.60 L 895.20 824.10 L 897.50 818.90 L 899.40 813.40 L 900.70 808.50 L 901.50 803.90 L 902.00 799.30 L 902.00 791.80 L 901.50 786.90 L 900.10 780.70 Z" fill="#dddddd" fill-rule="nonzero" node-id="77" stroke="none" target-height="120.30005" target-width="811.4" target-x="90.6" target-y="780.1"/><path d="M 90.60 780.70 L 900.30 780.40" fill="none" node-id="79" stroke="#141619" stroke-linecap="round" stroke-width="3.66" target-height="0.2999878" target-width="809.7" target-x="90.6" target-y="780.4"/><path d="M 859.00 780.40 L 834.00 775.60 L 821.40 773.50 L 788.30 768.90 L 768.50 766.60 L 747.80 764.70 L 725.00 763.20 L 693.50 762.00 L 676.80 761.80 L 643.10 762.60 L 625.60 763.50 L 608.30 765.00 L 590.80 766.90 L 573.30 769.40 L 560.20 771.60 L 547.30 774.20 L 521.60 780.40 L 380.70 780.40 L 380.70 178.50 L 452.00 187.50 L 519.00 194.50 L 571.10 198.50 L 603.20 199.90 L 617.50 200.10 L 631.70 199.90 L 664.10 198.50 L 717.10 194.50 L 785.70 187.50 L 859.00 178.50 Z" fill="#ffffff" fill-rule="nonzero" node-id="81" stroke="none" target-height="601.9" target-width="478.3" target-x="380.7" target-y="178.5"/><path d="M 521.60 782.30 L 380.70 782.30 L 380.00 782.10 L 379.00 781.20 L 378.90 178.50 L 379.00 177.80 L 380.20 176.80 L 453.10 185.80 L 519.90 192.70 L 571.60 196.70 L 603.40 198.00 L 617.50 198.20 L 647.30 197.50 L 663.60 196.70 L 698.40 194.20 L 751.40 189.30 L 784.50 185.80 L 858.80 176.70 L 859.50 176.80 L 860.70 177.80 L 860.60 781.20 L 859.40 782.20 L 858.60 782.20 L 837.80 778.10 L 800.00 772.20 L 766.30 768.30 L 747.20 766.50 L 729.00 765.30 L 708.50 764.30 L 687.50 763.70 L 664.90 763.80 L 634.10 764.90 L 618.10 766.00 L 602.20 767.50 L 586.10 769.40 L 569.90 771.80 L 553.80 774.70 L 537.90 778.20 L 521.60 782.30 Z M 382.50 778.60 L 521.40 778.60 L 545.10 772.80 L 559.90 769.90 L 574.80 767.40 L 591.50 765.10 L 610.30 763.00 L 624.20 761.80 L 655.40 760.30 L 672.80 760.00 L 707.80 760.60 L 727.10 761.50 L 747.60 762.90 L 769.70 764.90 L 791.60 767.40 L 813.60 770.50 L 835.40 774.10 L 857.20 778.20 L 857.20 180.60 L 793.40 188.50 L 722.30 195.80 L 666.50 200.10 L 632.40 201.70 L 617.50 201.90 L 602.60 201.70 L 568.80 200.10 L 514.10 195.80 L 478.00 192.20 L 444.70 188.50 L 382.50 180.60 Z" fill="#141619" fill-rule="nonzero" node-id="83" stroke="none" target-height="605.6" target-width="481.80002" target-x="378.9" target-y="176.7"/><path d="M 469.80 363.70 L 769.90 363.70 L 769.90 390.10 L 469.80 390.10 Z" fill="#ceced0" fill-rule="nonzero" node-id="85" stroke="none" target-height="26.399994" target-width="300.10004" target-x="469.8" target-y="363.7"/><path d="M 469.80 439.40 L 769.90 439.40 L 769.90 465.80 L 469.80 465.80 Z" fill="#ceced0" fill-rule="nonzero" node-id="87" stroke="none" target-height="26.399994" target-width="300.10004" target-x="469.8" target-y="439.4"/><path d="M 469.80 515.00 L 769.90 515.00 L 769.90 541.50 L 469.80 541.50 Z" fill="#ceced0" fill-rule="nonzero" node-id="89" stroke="none" target-height="26.5" target-width="300.10004" target-x="469.8" target-y="515"/><path d="M 469.80 590.70 L 769.90 590.70 L 769.90 617.10 L 469.80 617.10 Z" fill="#ceced0" fill-rule="nonzero" node-id="91" stroke="none" target-height="26.399963" target-width="300.10004" target-x="469.8" target-y="590.7"/><path d="M 469.80 666.30 L 769.90 666.30 L 769.90 692.80 L 469.80 692.80 Z" fill="#ceced0" fill-rule="nonzero" node-id="93" stroke="none" target-height="26.5" target-width="300.10004" target-x="469.8" target-y="666.3"/><path d="M 469.80 256.60 L 469.80 292.30 L 469.70 293.70 L 468.30 296.20 L 467.10 297.00 L 464.40 297.70 L 422.90 297.70 L 422.00 297.60 L 421.10 297.10 L 420.60 296.20 L 420.50 257.70 L 420.40 256.70 L 418.80 253.50 L 419.00 252.60 L 419.60 252.00 L 420.90 251.80 L 465.00 251.80 L 466.80 252.00 L 468.10 252.60 L 469.00 253.50 L 469.60 254.80 L 469.80 256.60 Z M 453.30 259.60 L 437.90 259.60 L 437.20 259.60 L 436.30 260.50 L 436.30 288.30 L 436.30 288.90 L 437.20 289.80 L 453.30 289.90 L 453.90 289.80 L 454.80 288.90 L 454.90 261.20 L 454.50 260.00 L 453.30 259.60 Z" fill="#5779eb" fill-rule="nonzero" node-id="95" stroke="none" target-height="45.90001" target-width="51" target-x="418.8" target-y="251.8"/><path d="M 483.60 263.50 L 513.00 263.50 L 514.60 263.70 L 515.90 264.20 L 517.00 265.20 L 518.50 267.80 L 518.70 269.60 L 518.70 292.30 L 518.40 294.30 L 517.80 295.80 L 516.80 296.80 L 515.30 297.40 L 513.30 297.70 L 483.60 297.70 L 480.90 297.00 L 479.70 296.20 L 478.80 295.00 L 478.20 292.30 L 478.20 268.80 L 478.50 266.80 L 479.10 265.40 L 480.10 264.40 L 481.60 263.70 L 483.60 263.50 Z M 501.40 271.20 L 494.60 271.30 L 493.70 272.20 L 493.60 288.30 L 493.70 288.90 L 494.60 289.80 L 501.40 289.90 L 502.10 289.80 L 503.00 288.90 L 503.00 272.90 L 502.60 271.70 L 501.40 271.20 Z" fill="#5779eb" fill-rule="nonzero" node-id="97" stroke="none" target-height="34.200012" target-width="40.5" target-x="478.2" target-y="263.5"/><path d="M 566.30 268.80 L 566.30 295.30 L 566.10 296.20 L 565.60 297.10 L 564.80 297.60 L 563.80 297.70 L 553.30 297.70 L 552.30 297.60 L 551.50 297.10 L 550.90 296.20 L 550.80 295.30 L 550.80 272.90 L 550.40 271.70 L 549.20 271.20 L 542.50 271.30 L 541.60 272.20 L 541.50 295.30 L 541.40 296.20 L 540.90 297.10 L 540.00 297.60 L 539.10 297.70 L 528.40 297.70 L 527.40 297.60 L 526.60 297.10 L 526.00 296.20 L 525.90 295.30 L 525.90 269.40 L 525.80 268.40 L 524.20 265.20 L 524.40 264.30 L 525.00 263.70 L 526.30 263.50 L 562.60 263.60 L 563.80 264.10 L 565.60 265.80 L 566.30 268.80 Z" fill="#5779eb" fill-rule="nonzero" node-id="99" stroke="none" target-height="34.200012" target-width="42.099976" target-x="524.2" target-y="263.5"/><path d="M 582.30 254.40 L 580.40 268.90 L 579.00 270.20 L 574.40 270.30 L 573.40 270.10 L 572.50 269.60 L 572.00 268.80 L 572.60 254.10 L 572.70 253.20 L 573.20 252.40 L 574.00 251.90 L 580.00 251.80 L 581.00 251.80 L 581.90 252.40 L 582.40 253.30 L 582.30 254.40 Z" fill="#5779eb" fill-rule="nonzero" node-id="101" stroke="none" target-height="18.499985" target-width="10.400024" target-x="572" target-y="251.8"/><path d="M 591.20 262.30 L 591.10 261.30 L 589.60 258.10 L 589.70 257.20 L 590.40 256.60 L 591.70 256.40 L 603.90 256.40 L 604.90 256.50 L 605.70 257.00 L 606.20 257.80 L 606.30 261.80 L 606.80 263.00 L 608.00 263.50 L 614.20 263.60 L 615.00 264.10 L 615.60 264.90 L 615.70 265.90 L 615.60 269.80 L 615.00 270.60 L 614.20 271.10 L 613.20 271.20 L 607.40 271.30 L 606.50 272.20 L 606.40 272.90 L 606.50 288.90 L 607.40 289.80 L 611.60 289.90 L 612.50 290.00 L 613.40 290.50 L 613.90 291.40 L 614.00 292.30 L 613.90 296.20 L 613.40 297.10 L 612.50 297.60 L 611.60 297.70 L 596.60 297.70 L 593.90 297.00 L 591.90 294.90 L 591.20 292.30 L 591.20 272.20 L 590.30 271.30 L 586.40 271.10 L 585.60 270.60 L 585.00 269.80 L 584.90 268.80 L 585.00 264.90 L 585.60 264.10 L 586.40 263.60 L 590.60 263.30 L 591.20 262.30 Z" fill="#5779eb" fill-rule="nonzero" node-id="103" stroke="none" target-height="41.30002" target-width="30.799988" target-x="584.9" target-y="256.4"/><path d="M 251.60 528.50 L 404.20 528.50 L 411.90 528.80 L 419.40 529.50 L 426.70 530.70 L 433.80 532.50 L 440.80 534.60 L 447.60 537.20 L 454.10 540.30 L 460.40 543.70 L 466.50 547.50 L 472.30 551.70 L 477.80 556.20 L 483.00 561.10 L 487.80 566.30 L 492.40 571.80 L 496.50 577.60 L 500.40 583.60 L 503.80 589.90 L 506.80 596.50 L 509.40 603.20 L 511.60 610.20 L 513.30 617.40 L 514.50 624.60 L 515.30 632.10 L 515.60 639.80 L 515.60 780.40 L 140.20 780.40 L 140.20 639.80 L 140.50 632.10 L 141.20 624.60 L 142.50 617.40 L 144.20 610.20 L 146.40 603.20 L 149.00 596.50 L 152.00 589.90 L 155.40 583.60 L 159.20 577.60 L 163.40 571.80 L 167.90 566.30 L 172.80 561.10 L 178.00 556.20 L 183.50 551.70 L 189.30 547.50 L 195.30 543.70 L 201.60 540.30 L 208.20 537.20 L 214.90 534.60 L 221.90 532.50 L 229.10 530.70 L 236.40 529.50 L 243.80 528.80 L 251.60 528.50 Z" fill="#ffdccd" fill-rule="nonzero" node-id="105" stroke="none" target-height="251.90002" target-width="375.39996" target-x="140.2" target-y="528.5"/><path d="M 515.60 782.30 L 140.20 782.30 L 138.90 781.70 L 138.40 780.40 L 138.40 639.80 L 138.70 632.00 L 139.40 624.40 L 140.70 617.00 L 142.40 609.80 L 144.70 602.60 L 147.30 595.80 L 150.40 589.10 L 153.90 582.70 L 157.80 576.60 L 162.00 570.70 L 166.60 565.10 L 171.60 559.80 L 176.80 554.90 L 182.40 550.30 L 188.30 546.00 L 194.50 542.10 L 200.90 538.70 L 207.50 535.60 L 214.40 532.90 L 221.50 530.70 L 228.70 529.00 L 236.10 527.70 L 243.70 526.90 L 251.60 526.70 L 404.20 526.70 L 412.00 526.90 L 419.60 527.70 L 427.10 529.00 L 434.30 530.70 L 441.40 532.90 L 448.30 535.60 L 454.90 538.70 L 461.30 542.10 L 467.50 546.00 L 473.40 550.30 L 478.90 554.90 L 484.20 559.80 L 489.20 565.10 L 493.80 570.70 L 498.00 576.60 L 501.90 582.70 L 505.40 589.10 L 508.50 595.80 L 511.10 602.60 L 513.30 609.80 L 515.10 617.00 L 516.30 624.40 L 517.10 632.00 L 517.40 639.80 L 517.40 780.40 L 516.90 781.70 L 515.60 782.30 Z M 142.00 778.60 L 513.70 778.60 L 513.70 639.80 L 513.50 632.30 L 512.70 624.90 L 511.50 617.70 L 509.80 610.70 L 507.60 603.80 L 505.10 597.20 L 502.10 590.80 L 498.80 584.60 L 495.00 578.60 L 490.90 572.90 L 486.40 567.50 L 481.60 562.40 L 476.50 557.60 L 471.10 553.20 L 465.40 549.10 L 459.50 545.30 L 453.30 541.90 L 446.90 539.00 L 440.20 536.40 L 433.30 534.20 L 426.30 532.60 L 419.10 531.30 L 411.80 530.60 L 404.20 530.30 L 251.60 530.30 L 244.00 530.60 L 236.60 531.30 L 229.40 532.60 L 222.50 534.20 L 215.60 536.40 L 208.90 539.00 L 202.50 541.90 L 196.30 545.30 L 190.30 549.10 L 184.60 553.20 L 179.20 557.60 L 174.10 562.40 L 169.30 567.50 L 164.90 572.90 L 160.80 578.60 L 157.00 584.60 L 153.60 590.80 L 150.70 597.20 L 148.10 603.80 L 145.90 610.70 L 144.20 617.70 L 143.00 624.90 L 142.30 632.30 L 142.00 639.80 Z" fill="#141619" fill-rule="nonzero" node-id="107" stroke="none" target-height="255.59998" target-width="379.00003" target-x="138.4" target-y="526.7"/><path d="M 391.20 531.30 L 352.80 531.30 L 350.70 531.10 L 348.90 530.40 L 347.40 529.30 L 345.00 526.30 L 344.00 524.30 L 342.30 517.90 L 341.80 511.70 L 314.00 511.70 L 313.40 517.90 L 311.50 524.20 L 310.50 526.20 L 308.10 529.20 L 306.60 530.30 L 304.90 531.00 L 303.00 531.30 L 256.40 531.60 L 247.50 532.20 L 238.60 533.40 L 229.80 535.00 L 221.00 537.00 L 236.40 547.90 L 249.70 557.90 L 261.20 567.10 L 272.40 576.70 L 281.90 585.30 L 289.90 593.10 L 297.50 601.30 L 309.00 614.90 L 313.80 621.50 L 320.40 632.10 L 324.10 639.40 L 326.20 644.70 L 327.70 649.50 L 328.50 654.90 L 329.80 648.30 L 331.60 642.70 L 334.00 636.50 L 337.90 628.50 L 344.90 617.00 L 349.70 610.10 L 354.90 603.40 L 361.20 596.10 L 368.70 588.10 L 376.50 580.40 L 385.80 572.20 L 396.50 563.40 L 407.60 555.00 L 420.30 546.20 L 434.90 536.80 L 426.20 534.80 L 417.50 533.30 L 408.80 532.20 L 400.00 531.60 L 391.20 531.30 Z" fill="#ffffff" fill-rule="nonzero" node-id="109" stroke="none" target-height="143.20001" target-width="213.9" target-x="221" target-y="511.7"/><path d="M 328.50 656.80 L 327.70 656.60 L 326.80 655.60 L 326.00 650.60 L 323.60 643.00 L 321.10 637.50 L 318.10 631.70 L 313.60 624.50 L 309.10 618.00 L 298.40 605.00 L 289.60 595.50 L 280.00 586.10 L 270.10 577.10 L 249.50 560.10 L 239.40 552.40 L 220.00 538.50 L 219.30 537.70 L 219.20 536.70 L 219.70 535.80 L 220.50 535.20 L 229.40 533.20 L 238.40 531.60 L 247.40 530.40 L 256.40 529.70 L 265.50 529.50 L 303.00 529.50 L 304.50 529.30 L 305.90 528.70 L 307.30 527.60 L 308.60 525.90 L 309.90 523.50 L 311.10 519.70 L 311.90 515.80 L 312.30 511.10 L 313.30 510.10 L 314.00 510.00 L 342.50 510.10 L 343.50 511.10 L 344.00 517.40 L 345.50 523.20 L 346.80 525.70 L 348.30 527.70 L 349.20 528.50 L 351.50 529.40 L 391.20 529.50 L 400.10 529.80 L 409.00 530.40 L 417.80 531.50 L 426.50 533.00 L 435.30 535.00 L 436.20 535.50 L 436.60 536.50 L 436.50 537.50 L 435.80 538.30 L 417.30 550.40 L 407.60 557.30 L 397.60 564.80 L 387.80 572.90 L 371.90 587.50 L 360.10 600.10 L 354.60 606.70 L 349.50 613.50 L 344.80 620.40 L 340.10 628.20 L 336.80 634.70 L 334.20 640.80 L 331.30 649.80 L 330.10 655.70 L 329.20 656.60 L 328.50 656.80 Z M 225.30 537.80 L 240.80 548.90 L 254.10 559.00 L 265.60 568.30 L 276.70 578.00 L 286.10 586.70 L 293.90 594.60 L 301.40 602.80 L 307.60 610.00 L 317.10 623.00 L 323.30 633.50 L 326.70 640.60 L 328.50 645.80 L 330.20 640.80 L 333.00 634.20 L 337.90 624.60 L 341.50 618.80 L 347.20 610.30 L 353.60 602.10 L 360.50 594.10 L 367.70 586.40 L 375.30 579.10 L 391.20 565.30 L 407.10 553.10 L 419.10 544.70 L 430.20 537.50 L 420.50 535.60 L 410.80 534.20 L 401.00 533.40 L 350.70 533.00 L 347.20 531.50 L 345.70 530.20 L 344.00 528.10 L 342.60 525.50 L 341.50 522.70 L 340.70 519.60 L 340.00 513.60 L 315.80 513.60 L 314.80 520.00 L 313.80 523.30 L 312.50 526.40 L 311.30 528.20 L 308.60 531.20 L 307.00 532.20 L 305.10 532.90 L 303.00 533.10 L 265.50 533.10 L 255.30 533.40 L 245.30 534.30 L 235.30 535.80 L 225.30 537.80 Z" fill="#141619" fill-rule="nonzero" node-id="111" stroke="none" target-height="146.79999" target-width="217.40001" target-x="219.2" target-y="510"/><path d="M 327.90 652.90 L 265.10 531.30 L 271.30 535.50 L 276.50 538.30 L 282.40 541.20 L 295.50 546.00 L 308.30 549.10 L 315.10 550.10 L 322.50 550.80 L 330.60 551.00 L 338.10 550.80 L 345.00 550.20 L 351.30 549.20 L 363.00 546.10 L 368.00 544.30 L 375.00 541.20 L 380.30 538.40 L 385.10 535.50 L 390.70 531.30 Z" fill="#ffdccc" fill-rule="nonzero" node-id="113" stroke="none" target-height="121.60004" target-width="125.600006" target-x="265.1" target-y="531.3"/><path d="M 327.90 654.70 L 326.90 654.40 L 326.30 653.70 L 263.50 532.20 L 263.30 531.60 L 263.50 530.40 L 264.50 529.60 L 265.70 529.60 L 272.50 534.00 L 283.50 539.60 L 296.30 544.30 L 308.80 547.30 L 315.50 548.30 L 322.70 549.00 L 330.60 549.20 L 337.90 549.00 L 344.50 548.40 L 350.70 547.40 L 362.10 544.40 L 373.80 539.70 L 379.10 537.00 L 383.80 534.10 L 390.00 529.60 L 391.20 529.60 L 392.20 530.40 L 392.50 531.60 L 392.30 532.20 L 329.50 653.70 L 328.80 654.40 L 327.90 654.70 Z M 270.00 536.80 L 327.90 648.80 L 385.40 537.50 L 379.10 541.20 L 372.60 544.30 L 366.00 547.00 L 359.10 549.20 L 352.10 550.90 L 345.00 552.10 L 337.80 552.70 L 329.80 552.80 L 315.80 552.00 L 309.50 551.20 L 297.70 548.60 L 285.30 544.40 L 279.40 541.80 L 270.00 536.80 Z" fill="#141619" fill-rule="nonzero" node-id="115" stroke="none" target-height="125.10004" target-width="129.20001" target-x="263.3" target-y="529.6"/><path d="M 272.70 442.50 L 272.40 446.10 L 271.40 449.50 L 269.90 452.70 L 267.90 455.50 L 265.50 457.90 L 262.70 459.90 L 259.60 461.40 L 256.20 462.30 L 252.50 462.70 L 248.80 462.30 L 245.40 461.40 L 242.30 459.90 L 239.50 457.90 L 237.00 455.50 L 235.00 452.70 L 233.50 449.50 L 232.60 446.10 L 232.30 442.50 L 232.60 438.80 L 233.50 435.40 L 235.00 432.30 L 237.00 429.40 L 239.50 427.00 L 242.30 425.00 L 245.40 423.50 L 248.80 422.60 L 252.50 422.30 L 256.20 422.60 L 259.60 423.50 L 262.70 425.00 L 265.50 427.00 L 267.90 429.40 L 269.90 432.30 L 271.40 435.40 L 272.40 438.80 L 272.70 442.50 Z" fill="#ffffff" fill-rule="nonzero" node-id="117" stroke="none" target-height="40.400024" target-width="40.40001" target-x="232.3" target-y="422.3"/><path d="M 252.50 464.50 L 249.40 464.30 L 243.90 462.80 L 241.40 461.50 L 238.30 459.30 L 235.70 456.70 L 233.50 453.60 L 232.20 451.10 L 230.70 445.50 L 230.50 442.50 L 230.70 439.50 L 232.20 433.90 L 233.50 431.40 L 235.70 428.30 L 238.30 425.70 L 241.40 423.50 L 246.60 421.30 L 249.40 420.70 L 252.50 420.50 L 258.40 421.30 L 263.60 423.50 L 266.70 425.70 L 269.30 428.30 L 271.50 431.40 L 272.80 433.90 L 274.30 439.50 L 274.50 442.50 L 274.30 445.50 L 272.70 451.10 L 271.50 453.60 L 269.30 456.70 L 266.70 459.30 L 263.60 461.50 L 261.10 462.80 L 255.50 464.30 L 252.50 464.50 Z M 252.50 424.10 L 249.10 424.40 L 246.10 425.20 L 243.20 426.60 L 240.60 428.40 L 238.40 430.60 L 236.60 433.20 L 235.30 436.00 L 234.40 439.10 L 234.10 442.50 L 234.40 445.80 L 235.30 448.90 L 236.60 451.70 L 238.40 454.30 L 240.60 456.50 L 243.20 458.30 L 246.10 459.70 L 249.10 460.50 L 252.50 460.80 L 255.80 460.50 L 258.90 459.70 L 261.80 458.30 L 264.30 456.50 L 266.50 454.30 L 268.40 451.70 L 269.70 448.90 L 270.60 445.80 L 270.90 442.50 L 270.60 439.10 L 269.70 436.00 L 268.40 433.20 L 266.50 430.60 L 264.30 428.40 L 261.80 426.60 L 258.90 425.20 L 255.80 424.40 L 252.50 424.10 Z" fill="#141619" fill-rule="nonzero" node-id="119" stroke="none" target-height="44" target-width="44" target-x="230.5" target-y="420.5"/><path d="M 423.50 442.50 L 423.10 446.10 L 422.20 449.50 L 420.70 452.70 L 418.70 455.50 L 416.30 457.90 L 413.50 459.90 L 410.30 461.40 L 407.00 462.30 L 403.30 462.70 L 399.60 462.30 L 396.20 461.40 L 393.10 459.90 L 390.20 457.90 L 387.80 455.50 L 385.80 452.70 L 384.30 449.50 L 383.40 446.10 L 383.10 442.50 L 383.40 438.80 L 384.30 435.40 L 385.80 432.30 L 387.80 429.40 L 390.20 427.00 L 393.10 425.00 L 396.20 423.50 L 399.60 422.60 L 403.30 422.30 L 407.00 422.60 L 410.30 423.50 L 413.50 425.00 L 416.30 427.00 L 418.70 429.40 L 420.70 432.30 L 422.20 435.40 L 423.10 438.80 L 423.50 442.50 Z" fill="#ffffff" fill-rule="nonzero" node-id="121" stroke="none" target-height="40.400024" target-width="40.399994" target-x="383.1" target-y="422.3"/><path d="M 403.30 464.50 L 400.20 464.30 L 394.70 462.80 L 392.20 461.50 L 389.10 459.30 L 386.50 456.70 L 384.30 453.60 L 383.00 451.10 L 381.50 445.50 L 381.30 442.50 L 381.50 439.50 L 383.00 433.90 L 384.30 431.40 L 386.50 428.30 L 389.10 425.70 L 392.20 423.50 L 397.40 421.30 L 400.20 420.70 L 403.30 420.50 L 409.20 421.30 L 414.40 423.50 L 417.50 425.70 L 420.10 428.30 L 422.30 431.40 L 423.60 433.90 L 425.10 439.50 L 425.30 442.50 L 425.10 445.50 L 423.50 451.10 L 422.30 453.60 L 420.10 456.70 L 417.50 459.30 L 414.40 461.50 L 411.80 462.80 L 406.30 464.30 L 403.30 464.50 Z M 403.30 424.10 L 399.90 424.40 L 396.90 425.20 L 394.00 426.60 L 391.40 428.40 L 389.20 430.60 L 387.40 433.20 L 386.10 436.00 L 385.20 439.10 L 384.90 442.50 L 385.20 445.80 L 386.10 448.90 L 387.40 451.70 L 389.20 454.30 L 391.40 456.50 L 394.00 458.30 L 396.90 459.70 L 399.90 460.50 L 403.30 460.80 L 406.60 460.50 L 409.70 459.70 L 412.60 458.30 L 415.10 456.50 L 417.30 454.30 L 419.20 451.70 L 420.50 448.90 L 421.30 445.80 L 421.70 442.50 L 421.30 439.10 L 420.50 436.00 L 419.10 433.20 L 417.30 430.60 L 415.10 428.40 L 412.60 426.60 L 409.70 425.20 L 406.60 424.40 L 403.30 424.10 Z" fill="#141619" fill-rule="nonzero" node-id="123" stroke="none" target-height="44" target-width="44" target-x="381.3" target-y="420.5"/><path d="M 277.10 363.10 L 378.60 363.10 L 382.60 363.40 L 386.40 364.20 L 390.00 365.40 L 393.40 367.10 L 396.50 369.20 L 399.30 371.70 L 401.80 374.50 L 403.90 377.60 L 405.60 381.00 L 406.80 384.60 L 407.60 388.40 L 407.90 392.40 L 407.90 437.00 L 407.60 443.50 L 406.90 449.80 L 405.60 455.90 L 403.90 461.80 L 401.70 467.60 L 399.10 473.10 L 396.10 478.30 L 392.80 483.30 L 389.00 488.10 L 384.90 492.50 L 380.50 496.50 L 375.80 500.30 L 370.80 503.70 L 365.50 506.70 L 360.00 509.30 L 354.20 511.40 L 348.30 513.20 L 342.30 514.40 L 336.00 515.20 L 329.50 515.40 L 319.80 515.20 L 313.50 514.40 L 307.40 513.20 L 301.50 511.40 L 295.70 509.30 L 290.20 506.70 L 285.00 503.70 L 280.00 500.30 L 275.30 496.50 L 270.90 492.50 L 266.80 488.10 L 263.00 483.30 L 259.60 478.30 L 256.60 473.10 L 254.10 467.60 L 251.90 461.80 L 250.20 455.90 L 248.90 449.80 L 248.20 443.50 L 247.90 437.00 L 247.90 392.40 L 248.20 388.40 L 248.90 384.60 L 250.20 381.00 L 251.90 377.60 L 254.00 374.50 L 256.40 371.70 L 259.30 369.20 L 262.30 367.20 L 265.70 365.40 L 269.30 364.20 L 273.10 363.40 L 277.10 363.10 Z" fill="#ffffff" fill-rule="nonzero" node-id="125" stroke="none" target-height="152.30002" target-width="160" target-x="247.9" target-y="363.1"/><path d="M 329.50 517.30 L 319.70 517.00 L 313.20 516.20 L 307.00 515.00 L 301.00 513.20 L 295.00 511.00 L 289.40 508.30 L 284.00 505.30 L 278.90 501.80 L 274.10 497.90 L 269.60 493.80 L 265.40 489.30 L 261.60 484.40 L 258.10 479.30 L 255.00 473.90 L 252.40 468.30 L 250.20 462.40 L 248.40 456.30 L 247.10 450.10 L 246.30 443.70 L 246.10 437.00 L 246.10 392.40 L 246.30 388.10 L 247.20 384.10 L 248.50 380.30 L 250.30 376.70 L 252.50 373.40 L 255.20 370.40 L 258.10 367.80 L 261.40 365.60 L 265.00 363.80 L 268.80 362.40 L 272.90 361.60 L 277.10 361.30 L 378.60 361.30 L 382.90 361.60 L 386.90 362.40 L 390.70 363.80 L 394.30 365.60 L 397.60 367.80 L 400.60 370.40 L 403.20 373.40 L 405.40 376.70 L 407.30 380.30 L 408.60 384.10 L 409.40 388.10 L 409.70 392.40 L 409.70 437.00 L 409.40 443.70 L 408.60 450.10 L 407.40 456.30 L 405.60 462.40 L 403.40 468.30 L 400.70 473.90 L 397.70 479.30 L 394.20 484.40 L 390.40 489.30 L 386.20 493.80 L 381.70 497.90 L 376.80 501.80 L 371.70 505.30 L 366.40 508.30 L 360.70 511.00 L 354.80 513.20 L 348.80 515.00 L 342.50 516.20 L 336.10 517.00 L 329.50 517.30 Z M 277.10 365.00 L 273.40 365.30 L 269.80 366.00 L 266.50 367.20 L 263.30 368.80 L 260.40 370.70 L 257.80 373.00 L 255.40 375.70 L 253.50 378.60 L 251.90 381.70 L 250.70 385.10 L 250.00 388.60 L 249.70 392.40 L 249.70 437.00 L 250.00 443.40 L 250.70 449.50 L 251.90 455.40 L 253.60 461.20 L 255.80 466.80 L 258.30 472.20 L 261.20 477.30 L 264.50 482.20 L 268.20 486.90 L 272.20 491.10 L 276.50 495.10 L 281.10 498.80 L 286.00 502.10 L 291.10 505.00 L 296.50 507.50 L 302.10 509.70 L 307.90 511.40 L 313.80 512.60 L 320.00 513.30 L 326.30 513.60 L 335.80 513.30 L 341.90 512.60 L 347.90 511.40 L 353.70 509.70 L 359.30 507.50 L 364.70 505.00 L 369.80 502.10 L 374.70 498.80 L 379.30 495.10 L 383.60 491.10 L 387.60 486.80 L 391.30 482.20 L 394.60 477.30 L 397.50 472.20 L 400.00 466.80 L 402.10 461.20 L 403.80 455.40 L 405.00 449.50 L 405.80 443.40 L 406.10 437.00 L 406.10 392.40 L 405.80 388.60 L 405.10 385.10 L 403.90 381.70 L 402.30 378.60 L 400.30 375.70 L 398.00 373.00 L 395.40 370.70 L 392.50 368.80 L 389.30 367.20 L 385.90 366.00 L 382.40 365.30 L 378.60 365.00 Z" fill="#141619" fill-rule="nonzero" node-id="127" stroke="none" target-height="156" target-width="163.6" target-x="246.1" target-y="361.3"/><path d="M 306.90 470.20 L 306.60 471.30 L 305.60 472.60 L 301.70 474.60 L 295.90 475.90 L 289.10 476.40 L 282.20 475.90 L 276.50 474.60 L 272.60 472.60 L 271.50 471.30 L 271.20 470.20 L 271.50 469.00 L 272.60 467.80 L 276.50 465.80 L 282.20 464.40 L 289.10 464.00 L 295.90 464.40 L 301.70 465.80 L 305.60 467.80 L 306.60 469.00 L 306.90 470.20 Z" fill="#f4c5b7" fill-rule="nonzero" node-id="129" stroke="none" target-height="12.399994" target-width="35.69998" target-x="271.2" target-y="464"/><path d="M 384.50 470.20 L 384.30 471.20 L 383.50 472.30 L 382.10 473.30 L 379.50 474.50 L 375.70 475.60 L 371.60 476.20 L 366.70 476.40 L 361.80 476.20 L 357.70 475.60 L 353.90 474.50 L 351.30 473.30 L 349.80 472.30 L 349.10 471.20 L 348.80 470.20 L 349.10 469.10 L 349.80 468.10 L 351.30 467.00 L 353.90 465.80 L 357.70 464.80 L 361.80 464.20 L 366.70 464.00 L 371.60 464.20 L 375.70 464.80 L 379.50 465.80 L 382.10 467.00 L 383.50 468.10 L 384.30 469.10 L 384.50 470.20 Z" fill="#f4c5b7" fill-rule="nonzero" node-id="131" stroke="none" target-height="12.399994" target-width="35.700012" target-x="348.8" target-y="464"/><path d="M 325.40 431.10 L 325.10 436.00 L 324.10 440.60 L 322.60 444.90 L 320.50 449.10 L 318.00 452.80 L 315.00 456.30 L 311.60 459.30 L 307.80 461.80 L 303.70 463.90 L 299.30 465.40 L 294.70 466.40 L 289.80 466.70 L 284.90 466.40 L 280.30 465.40 L 275.90 463.90 L 271.80 461.80 L 268.00 459.30 L 264.60 456.30 L 261.60 452.80 L 259.00 449.10 L 257.00 444.90 L 255.40 440.60 L 254.50 436.00 L 254.20 431.10 L 254.50 426.20 L 255.40 421.60 L 257.00 417.20 L 259.00 413.10 L 261.60 409.30 L 264.60 405.90 L 268.00 402.80 L 271.80 400.30 L 275.90 398.20 L 280.30 396.70 L 284.90 395.80 L 289.80 395.40 L 294.70 395.80 L 299.30 396.70 L 303.70 398.20 L 307.80 400.30 L 311.60 402.80 L 315.00 405.90 L 318.00 409.30 L 320.50 413.10 L 322.60 417.20 L 324.10 421.60 L 325.10 426.20 L 325.40 431.10 Z" fill="#ffffff" fill-rule="nonzero" node-id="133" stroke="none" target-height="71.30002" target-width="71.2" target-x="254.2" target-y="395.4"/><path d="M 289.80 468.50 L 282.20 467.70 L 275.20 465.60 L 270.90 463.40 L 266.90 460.70 L 263.30 457.50 L 260.10 453.90 L 257.50 450.00 L 255.30 445.60 L 253.10 438.70 L 252.30 431.10 L 253.10 423.50 L 255.30 416.50 L 257.50 412.10 L 260.10 408.20 L 263.30 404.60 L 266.90 401.40 L 270.90 398.70 L 275.20 396.50 L 282.20 394.40 L 285.90 393.80 L 289.80 393.60 L 293.70 393.80 L 300.90 395.30 L 304.40 396.50 L 308.70 398.70 L 312.70 401.40 L 316.30 404.60 L 319.40 408.20 L 322.10 412.10 L 324.30 416.50 L 326.50 423.50 L 327.30 431.10 L 326.50 438.70 L 324.30 445.60 L 322.10 450.00 L 319.40 453.90 L 316.30 457.50 L 312.70 460.70 L 308.70 463.40 L 304.40 465.60 L 297.40 467.70 L 289.80 468.50 Z M 289.80 397.30 L 285.10 397.60 L 280.80 398.50 L 276.60 399.90 L 272.70 401.90 L 269.10 404.30 L 265.90 407.20 L 263.00 410.40 L 260.60 414.00 L 258.60 417.90 L 257.20 422.00 L 256.30 426.40 L 256.00 431.10 L 256.30 435.70 L 257.20 440.10 L 258.60 444.20 L 260.60 448.10 L 263.00 451.70 L 265.90 455.00 L 269.10 457.80 L 272.70 460.20 L 276.60 462.20 L 280.80 463.60 L 285.10 464.50 L 289.80 464.90 L 294.40 464.50 L 298.80 463.60 L 302.90 462.20 L 306.90 460.20 L 310.40 457.80 L 313.70 455.00 L 316.60 451.70 L 319.00 448.10 L 320.90 444.20 L 322.40 440.10 L 323.30 435.70 L 323.60 431.10 L 323.30 426.40 L 322.40 422.00 L 320.90 417.90 L 319.00 414.00 L 316.50 410.40 L 313.70 407.20 L 310.40 404.30 L 306.90 401.90 L 302.90 399.90 L 298.80 398.50 L 294.40 397.60 L 289.80 397.30 Z" fill="#141619" fill-rule="nonzero" node-id="135" stroke="none" target-height="74.899994" target-width="74.999985" target-x="252.3" target-y="393.6"/><path d="M 401.60 431.10 L 401.30 436.00 L 400.30 440.60 L 398.80 444.90 L 396.70 449.10 L 394.20 452.80 L 391.20 456.30 L 387.70 459.30 L 384.00 461.80 L 379.80 463.90 L 375.50 465.40 L 370.90 466.40 L 366.00 466.70 L 361.10 466.40 L 356.50 465.40 L 352.10 463.90 L 348.00 461.80 L 344.20 459.30 L 340.80 456.30 L 337.80 452.80 L 335.20 449.10 L 333.10 444.90 L 331.60 440.60 L 330.70 436.00 L 330.40 431.10 L 330.70 426.20 L 331.60 421.60 L 333.20 417.20 L 335.20 413.10 L 337.80 409.30 L 340.80 405.90 L 344.20 402.80 L 348.00 400.30 L 352.10 398.20 L 356.50 396.70 L 361.10 395.80 L 366.00 395.40 L 370.90 395.80 L 375.50 396.70 L 379.80 398.20 L 384.00 400.30 L 387.70 402.80 L 391.20 405.90 L 394.20 409.30 L 396.70 413.10 L 398.80 417.20 L 400.30 421.60 L 401.30 426.20 L 401.60 431.10 Z" fill="#ffffff" fill-rule="nonzero" node-id="137" stroke="none" target-height="71.30002" target-width="71.20001" target-x="330.4" target-y="395.4"/><path d="M 366.00 468.50 L 358.40 467.70 L 351.40 465.60 L 347.10 463.40 L 343.10 460.70 L 339.50 457.50 L 336.30 453.90 L 333.70 450.00 L 331.50 445.60 L 329.30 438.70 L 328.50 431.10 L 329.30 423.50 L 331.50 416.50 L 333.70 412.10 L 336.30 408.20 L 339.50 404.60 L 343.10 401.40 L 347.10 398.70 L 351.40 396.50 L 358.40 394.40 L 362.10 393.80 L 366.00 393.60 L 369.90 393.80 L 377.20 395.30 L 380.60 396.50 L 384.90 398.70 L 388.90 401.40 L 392.50 404.60 L 395.70 408.20 L 398.30 412.10 L 400.50 416.50 L 402.70 423.50 L 403.50 431.10 L 402.70 438.70 L 400.50 445.60 L 398.30 450.00 L 395.60 453.90 L 392.50 457.50 L 388.90 460.70 L 384.90 463.40 L 380.60 465.60 L 373.60 467.70 L 366.00 468.50 Z M 366.00 397.30 L 361.40 397.60 L 357.00 398.50 L 352.80 399.90 L 348.90 401.90 L 345.30 404.30 L 342.10 407.20 L 339.20 410.40 L 336.80 414.00 L 334.90 417.90 L 333.40 422.00 L 332.50 426.40 L 332.20 431.10 L 332.50 435.70 L 333.40 440.10 L 334.90 444.20 L 336.80 448.10 L 339.20 451.70 L 342.10 455.00 L 345.30 457.80 L 348.90 460.20 L 352.80 462.20 L 357.00 463.60 L 361.40 464.50 L 366.00 464.90 L 370.60 464.50 L 375.00 463.60 L 379.20 462.20 L 383.10 460.20 L 386.70 457.80 L 389.90 455.00 L 392.80 451.70 L 395.20 448.10 L 397.10 444.20 L 398.60 440.10 L 399.50 435.70 L 399.80 431.10 L 399.50 426.40 L 398.60 422.00 L 397.10 417.90 L 395.20 414.00 L 392.80 410.40 L 389.90 407.20 L 386.60 404.30 L 383.10 401.90 L 379.20 399.90 L 375.00 398.50 L 370.60 397.60 L 366.00 397.30 Z" fill="#141619" fill-rule="nonzero" node-id="139" stroke="none" target-height="74.899994" target-width="75" target-x="328.5" target-y="393.6"/><path d="M 264.10 397.40 L 267.70 400.50 L 270.50 402.30 L 273.70 404.10 L 277.40 405.60 L 282.80 406.60 L 285.60 406.70 L 288.40 406.20 L 291.30 405.20 L 294.40 403.60 L 297.10 401.50 L 299.90 398.50 L 302.80 394.40 L 305.20 390.10 L 307.70 384.40 L 310.10 377.20 L 311.40 381.60 L 313.00 385.30 L 314.80 388.60 L 316.80 391.40 L 319.20 394.00 L 324.30 398.00 L 327.10 399.50 L 331.10 401.00 L 335.30 402.00 L 339.50 402.50 L 343.80 402.50 L 352.30 401.40 L 360.30 399.00 L 367.20 395.50 L 372.40 391.40 L 374.40 389.00 L 375.70 386.70 L 376.50 384.40 L 378.40 387.80 L 380.80 391.00 L 383.70 394.10 L 387.00 396.80 L 390.50 399.10 L 394.30 401.20 L 398.30 402.70 L 402.30 403.80 L 406.30 404.30 L 409.40 404.30 L 415.30 403.30 L 418.20 402.20 L 421.20 400.60 L 423.90 398.50 L 426.50 396.00 L 428.70 393.30 L 430.60 390.30 L 432.00 387.10 L 433.00 383.70 L 433.40 380.40 L 433.30 377.00 L 432.00 372.00 L 429.00 367.30 L 427.00 365.20 L 424.50 363.20 L 421.40 361.30 L 417.70 359.60 L 416.70 351.90 L 414.60 344.50 L 413.00 341.10 L 411.00 337.80 L 408.60 334.80 L 405.80 332.10 L 402.40 329.60 L 398.70 327.60 L 394.30 326.00 L 389.10 324.70 L 383.90 324.10 L 377.70 323.90 L 370.50 324.30 L 367.70 320.20 L 364.70 316.70 L 361.60 313.60 L 358.30 311.00 L 354.60 308.80 L 350.90 307.00 L 347.10 305.70 L 343.20 304.80 L 339.20 304.30 L 335.20 304.30 L 331.20 304.60 L 327.20 305.40 L 323.20 306.70 L 319.40 308.30 L 315.60 310.40 L 311.80 312.90 L 308.40 315.80 L 305.10 319.10 L 302.00 322.90 L 299.00 327.20 L 290.50 326.00 L 283.20 326.30 L 278.60 327.20 L 274.40 328.60 L 270.50 330.50 L 266.70 332.80 L 260.00 338.10 L 255.50 342.60 L 243.80 356.20 L 239.70 357.90 L 236.20 360.00 L 233.10 362.50 L 230.40 365.30 L 228.10 368.40 L 226.20 371.60 L 224.70 375.10 L 223.60 378.60 L 222.40 385.70 L 222.60 392.30 L 224.20 398.30 L 225.40 400.70 L 227.20 403.10 L 229.40 405.30 L 232.10 407.30 L 235.00 408.90 L 241.40 411.20 L 244.80 411.70 L 248.10 411.80 L 251.30 411.40 L 254.30 410.60 L 257.10 409.10 L 259.50 407.20 L 261.00 405.40 L 262.30 403.20 L 263.30 400.60 L 264.10 397.40 Z" fill="#3a3e52" fill-rule="nonzero" node-id="141" stroke="none" target-height="107.5" target-width="211" target-x="222.4" target-y="304.3"/><path d="M 247.20 413.70 L 241.10 413.00 L 238.10 412.10 L 232.40 409.60 L 227.40 406.00 L 223.80 401.70 L 222.70 399.40 L 221.00 393.90 L 220.50 389.40 L 220.70 384.50 L 221.40 379.70 L 222.80 374.90 L 224.20 371.40 L 226.00 368.20 L 228.10 365.30 L 230.50 362.50 L 233.20 360.10 L 236.10 357.90 L 239.30 356.10 L 242.70 354.60 L 253.30 342.30 L 257.30 338.20 L 261.60 334.40 L 268.10 329.80 L 275.40 326.40 L 279.40 325.20 L 283.70 324.40 L 288.10 324.10 L 292.90 324.30 L 298.10 325.10 L 301.50 320.50 L 305.10 316.50 L 309.00 312.90 L 313.30 309.80 L 317.70 307.20 L 322.20 305.10 L 327.00 303.60 L 331.80 302.70 L 336.80 302.40 L 341.60 302.70 L 346.00 303.50 L 350.30 304.80 L 354.40 306.60 L 358.30 308.90 L 362.00 311.60 L 365.40 314.80 L 368.50 318.40 L 371.40 322.40 L 378.50 322.10 L 384.80 322.30 L 390.40 323.10 L 395.40 324.40 L 399.80 326.10 L 403.70 328.30 L 407.20 330.90 L 410.00 333.60 L 412.50 336.70 L 414.60 340.20 L 416.30 344.00 L 417.70 348.30 L 418.80 353.00 L 419.40 358.30 L 423.10 360.20 L 426.20 362.20 L 428.80 364.50 L 431.00 366.90 L 432.80 369.60 L 434.10 372.50 L 434.90 375.50 L 435.30 378.80 L 435.10 382.20 L 434.40 385.50 L 433.30 388.80 L 431.80 391.90 L 429.80 394.90 L 427.50 397.60 L 424.90 400.10 L 422.10 402.20 L 418.90 403.90 L 415.20 405.30 L 411.30 406.00 L 407.40 406.20 L 403.40 405.80 L 399.50 404.90 L 395.50 403.60 L 388.20 399.80 L 384.90 397.40 L 381.80 394.70 L 379.10 391.80 L 376.80 388.70 L 374.90 391.30 L 372.50 393.80 L 369.20 396.30 L 365.80 398.40 L 361.90 400.30 L 357.50 401.90 L 353.00 403.20 L 348.40 404.00 L 343.60 404.40 L 338.70 404.30 L 334.20 403.70 L 330.10 402.60 L 326.30 401.20 L 322.90 399.30 L 319.60 396.90 L 316.80 394.20 L 314.20 391.00 L 312.00 387.30 L 310.10 383.20 L 307.80 388.90 L 305.30 393.70 L 302.80 397.70 L 300.20 400.90 L 297.60 403.50 L 294.90 405.50 L 292.00 406.90 L 289.10 407.90 L 284.10 408.50 L 278.20 407.70 L 271.90 405.20 L 265.20 400.80 L 264.00 403.90 L 262.40 406.60 L 260.20 409.00 L 257.70 411.00 L 254.80 412.40 L 251.60 413.20 L 247.20 413.70 Z M 288.70 327.80 L 284.00 328.00 L 279.80 328.80 L 275.90 330.10 L 272.10 331.70 L 265.40 336.00 L 260.80 339.90 L 256.60 344.10 L 245.20 357.40 L 238.30 360.80 L 233.20 364.90 L 231.00 367.40 L 227.50 373.00 L 225.00 380.40 L 224.30 384.70 L 224.20 389.00 L 224.60 392.90 L 225.90 397.70 L 227.00 399.70 L 228.60 402.00 L 230.70 404.00 L 233.10 405.80 L 238.70 408.50 L 244.90 409.90 L 248.00 410.00 L 250.90 409.70 L 253.10 409.00 L 257.00 407.00 L 259.70 404.10 L 260.70 402.20 L 262.30 397.10 L 262.70 396.20 L 263.50 395.60 L 264.50 395.60 L 265.40 396.10 L 270.10 399.90 L 272.50 401.30 L 278.20 403.90 L 281.40 404.70 L 285.90 404.80 L 288.20 404.40 L 291.00 403.40 L 293.60 401.90 L 296.20 399.80 L 298.80 397.00 L 301.30 393.50 L 303.70 389.00 L 306.10 383.40 L 308.60 376.10 L 310.10 375.30 L 310.80 375.50 L 311.70 376.20 L 313.10 380.80 L 316.00 387.20 L 317.70 389.60 L 320.40 392.70 L 323.20 395.10 L 326.10 397.00 L 329.20 398.40 L 335.30 400.20 L 339.80 400.70 L 343.50 400.70 L 348.40 400.30 L 353.60 399.20 L 358.70 397.60 L 363.30 395.50 L 368.80 392.10 L 372.80 388.20 L 374.00 386.20 L 374.80 383.60 L 376.20 382.60 L 377.80 383.20 L 380.30 387.50 L 382.90 390.80 L 385.90 393.70 L 389.20 396.30 L 392.70 398.40 L 396.30 400.10 L 400.10 401.30 L 403.80 402.10 L 407.50 402.40 L 411.10 402.30 L 414.40 401.70 L 417.40 400.60 L 422.60 397.30 L 424.80 395.10 L 428.50 390.20 L 430.90 384.60 L 431.40 381.80 L 431.60 378.90 L 431.30 376.20 L 430.40 373.00 L 429.40 371.00 L 426.00 366.80 L 423.80 364.90 L 416.20 360.60 L 414.40 350.00 L 413.10 345.90 L 411.60 342.30 L 409.60 339.10 L 407.40 336.20 L 404.80 333.70 L 401.60 331.30 L 397.90 329.30 L 393.80 327.70 L 389.10 326.60 L 383.70 325.90 L 369.70 325.90 L 363.40 317.90 L 360.30 314.90 L 356.80 312.30 L 353.20 310.10 L 349.40 308.40 L 345.40 307.10 L 341.30 306.30 L 337.00 306.10 L 332.20 306.40 L 327.60 307.20 L 323.10 308.70 L 318.80 310.70 L 314.70 313.20 L 310.70 316.30 L 307.10 319.70 L 303.70 323.70 L 300.60 328.10 L 299.70 328.90 L 288.70 327.80 Z" fill="#141619" fill-rule="nonzero" node-id="143" stroke="none" target-height="111.30002" target-width="214.79999" target-x="220.5" target-y="302.4"/><path d="M 367.30 427.70 L 367.00 429.30 L 366.40 430.80 L 365.40 432.10 L 364.10 433.10 L 362.70 433.70 L 361.10 433.90 L 359.40 433.70 L 358.00 433.10 L 356.70 432.10 L 355.70 430.80 L 355.10 429.30 L 354.80 427.70 L 355.10 426.10 L 355.70 424.60 L 356.70 423.30 L 358.00 422.30 L 359.40 421.70 L 361.10 421.50 L 362.70 421.70 L 364.10 422.30 L 365.40 423.30 L 366.40 424.60 L 367.00 426.10 L 367.30 427.70 Z" fill="#141619" fill-rule="nonzero" node-id="145" stroke="none" target-height="12.399994" target-width="12.5" target-x="354.8" target-y="421.5"/><path d="M 304.50 427.70 L 304.30 429.30 L 303.70 430.80 L 302.70 432.10 L 301.40 433.10 L 299.90 433.70 L 298.30 433.90 L 296.70 433.70 L 295.20 433.10 L 293.90 432.10 L 292.90 430.80 L 292.30 429.30 L 292.10 427.70 L 292.30 426.10 L 292.90 424.60 L 293.90 423.30 L 295.20 422.30 L 296.70 421.70 L 298.30 421.50 L 299.90 421.70 L 301.40 422.30 L 302.70 423.30 L 303.70 424.60 L 304.30 426.10 L 304.50 427.70 Z" fill="#141619" fill-rule="nonzero" node-id="147" stroke="none" target-height="12.399994" target-width="12.399994" target-x="292.1" target-y="421.5"/><path d="M 320.70 483.40 L 321.00 481.30 L 321.80 479.40 L 323.00 477.80 L 324.60 476.60 L 326.50 475.80 L 328.60 475.50 L 330.70 475.80 L 332.60 476.60 L 334.20 477.80 L 335.40 479.40 L 336.20 481.30 L 336.50 483.40" fill="#ffffff" fill-rule="nonzero" node-id="149" stroke="none" target-height="7.899994" target-width="15.799988" target-x="320.7" target-y="475.5"/><path d="M 336.50 485.20 L 335.80 485.10 L 334.80 484.10 L 334.40 481.80 L 333.80 480.40 L 332.90 479.10 L 331.60 478.20 L 330.20 477.60 L 328.60 477.40 L 326.90 477.60 L 325.50 478.20 L 324.30 479.10 L 323.30 480.40 L 322.80 481.80 L 322.40 484.10 L 322.00 484.70 L 320.70 485.30 L 319.40 484.70 L 318.90 483.40 L 319.00 481.60 L 320.20 478.50 L 321.70 476.50 L 323.70 475.00 L 326.80 473.90 L 328.60 473.70 L 332.00 474.30 L 333.50 475.00 L 335.50 476.50 L 337.00 478.50 L 338.10 481.60 L 338.20 484.10 L 337.80 484.70 L 336.50 485.20 Z" fill="#141619" fill-rule="nonzero" node-id="151" stroke="none" target-height="11.599976" target-width="19.300018" target-x="318.9" target-y="473.7"/><path d="M 504.70 739.60 L 479.70 760.80 L 471.50 766.30 L 462.50 770.50 L 457.80 772.10 L 451.00 773.30 L 447.10 773.50 L 441.20 773.40 L 434.90 772.60 L 426.70 770.50 L 418.90 767.00 L 415.30 764.70 L 411.90 762.10 L 368.50 723.70 L 366.60 720.10 L 366.00 716.20 L 366.80 712.20 L 368.90 708.60 L 413.50 657.70 L 415.10 656.20 L 418.60 654.30 L 420.60 653.80 L 424.60 653.90 L 428.30 655.40 L 463.50 686.00" fill="#ffdccd" fill-rule="nonzero" node-id="153" stroke="none" target-height="119.70001" target-width="138.70001" target-x="366" target-y="653.8"/><path d="M 445.60 775.40 L 439.60 775.10 L 433.30 774.20 L 429.30 773.20 L 421.30 770.30 L 417.50 768.30 L 414.00 766.10 L 410.70 763.50 L 368.80 726.60 L 367.10 724.80 L 365.80 722.80 L 364.80 720.70 L 364.30 718.40 L 364.40 713.80 L 365.00 711.60 L 366.00 709.50 L 367.50 707.40 L 412.10 656.50 L 413.90 654.80 L 415.90 653.50 L 418.00 652.60 L 422.60 651.90 L 427.10 652.70 L 429.20 653.80 L 431.30 655.20 L 464.70 684.70 L 465.20 685.40 L 465.30 686.40 L 464.90 687.30 L 464.10 687.80 L 463.10 687.90 L 462.30 687.40 L 427.40 656.90 L 424.20 655.70 L 421.70 655.60 L 419.20 656.10 L 416.20 657.70 L 414.90 658.90 L 369.20 711.30 L 368.00 714.50 L 367.90 717.90 L 369.00 721.10 L 371.20 723.90 L 413.10 760.80 L 416.30 763.20 L 419.70 765.40 L 427.20 768.70 L 435.00 770.80 L 441.00 771.60 L 446.80 771.80 L 454.10 771.10 L 457.40 770.40 L 466.30 766.90 L 474.70 762.20 L 478.60 759.40 L 503.50 738.20 L 504.40 737.70 L 505.30 737.80 L 506.20 738.30 L 506.60 739.20 L 506.50 740.20 L 505.90 741.00 L 484.80 759.10 L 480.80 762.30 L 472.30 767.90 L 463.10 772.20 L 458.30 773.90 L 449.90 775.30 L 445.60 775.40 Z" fill="#141619" fill-rule="nonzero" node-id="155" stroke="none" target-height="123.5" target-width="142.30002" target-x="364.3" target-y="651.9"/><path d="M 276.00 609.10 L 367.00 687.80 L 393.70 656.70 L 359.90 628.30 L 356.70 626.20 L 353.40 624.40 L 350.00 623.10 L 329.50 617.90 L 323.30 615.20 L 320.40 613.20 L 292.70 589.20 L 290.30 587.60 L 287.60 586.50 L 284.80 586.10 L 281.90 586.30 L 279.10 587.10 L 276.60 588.50 L 274.50 590.40 L 272.80 592.80 L 271.50 596.60 L 271.40 600.60 L 272.40 604.30 L 273.30 606.10 L 276.00 609.10 Z" fill="#ffffff" fill-rule="nonzero" node-id="157" stroke="none" target-height="101.70001" target-width="122.30002" target-x="271.4" target-y="586.1"/><path d="M 367.00 689.70 L 365.80 689.20 L 273.10 608.80 L 271.80 607.00 L 270.00 602.90 L 269.40 598.50 L 270.20 594.10 L 271.20 591.90 L 273.80 588.40 L 277.40 585.90 L 281.50 584.50 L 285.90 584.40 L 290.10 585.50 L 292.00 586.50 L 321.60 611.90 L 324.20 613.60 L 329.90 616.20 L 350.50 621.40 L 357.60 624.60 L 361.00 626.90 L 394.90 655.30 L 395.60 656.60 L 395.20 657.90 L 368.40 689.00 L 367.10 689.60 Z M 284.20 587.90 L 282.20 588.10 L 278.50 589.50 L 275.50 592.00 L 274.40 593.70 L 273.50 596.20 L 273.10 598.70 L 273.30 601.20 L 274.10 603.60 L 275.40 605.80 L 277.20 607.70 L 366.80 685.20 L 391.10 656.90 L 358.70 629.70 L 355.60 627.60 L 349.10 624.70 L 328.60 619.50 L 325.40 618.30 L 322.20 616.70 L 319.20 614.60 L 291.50 590.60 L 288.10 588.60 L 284.20 587.90 Z" fill="#141619" fill-rule="nonzero" node-id="159" stroke="none" target-height="105.29999" target-width="126.20001" target-x="269.4" target-y="584.4"/><path d="M 312.40 640.50 L 291.90 622.70 L 290.30 620.90 L 289.30 618.90 L 288.90 616.60 L 289.00 614.30 L 289.70 612.20 L 291.00 610.20 L 292.30 608.90 L 295.40 607.40 L 298.90 607.10 L 302.10 608.20 L 303.60 609.30 L 333.10 634.70" fill="#ffffff" fill-rule="nonzero" node-id="161" stroke="none" target-height="33.400024" target-width="44.200012" target-x="288.9" target-y="607.1"/><path d="M 312.40 642.30 L 311.20 641.90 L 289.40 622.70 L 287.60 619.40 L 287.00 615.80 L 287.70 612.20 L 289.60 609.00 L 292.60 606.50 L 296.10 605.40 L 299.70 605.40 L 303.20 606.70 L 334.30 633.30 L 334.80 634.10 L 334.90 635.00 L 334.50 635.90 L 333.70 636.50 L 332.70 636.50 L 331.90 636.10 L 302.40 610.60 L 300.80 609.60 L 299.10 609.00 L 297.20 608.90 L 295.50 609.30 L 293.80 610.10 L 292.40 611.40 L 291.00 613.80 L 290.70 616.50 L 291.40 619.20 L 293.10 621.40 L 313.60 639.10 L 314.20 640.00 L 314.10 641.10 L 313.50 642.00 L 312.40 642.30 Z" fill="#141619" fill-rule="nonzero" node-id="163" stroke="none" target-height="36.899963" target-width="47.899994" target-x="287" target-y="605.4"/><g node-id="215"><path d="M 362.90 728.20 L 348.50 715.50 L 347.30 714.20 L 346.60 712.70 L 346.30 711.00 L 346.40 709.40 L 346.90 707.80 L 347.90 706.30 L 408.30 637.30 L 409.70 636.10 L 411.20 635.40 L 412.80 635.10 L 414.50 635.20 L 416.10 635.70 L 417.60 636.70 L 432.00 649.30 L 433.20 650.60 L 433.90 652.10 L 434.20 653.80 L 434.10 655.50 L 433.60 657.00 L 432.60 658.50 L 372.10 727.60 L 370.80 728.70 L 369.30 729.50 L 367.70 729.80 L 366.00 729.70 L 364.40 729.10 L 362.90 728.20 Z" fill="#ffffff" fill-rule="nonzero" group-id="1" node-id="167" stroke="none" target-height="94.70001" target-width="87.900024" target-x="346.3" target-y="635.1"/></g><path d="M 367.20 731.60 L 365.20 731.40 L 363.30 730.70 L 361.70 729.50 L 347.30 716.90 L 345.80 715.20 L 344.80 713.30 L 344.40 711.20 L 344.50 709.00 L 345.20 707.00 L 346.50 705.10 L 406.90 636.10 L 408.60 634.60 L 410.60 633.70 L 412.70 633.20 L 414.80 633.40 L 416.80 634.10 L 418.70 635.30 L 433.10 647.90 L 434.60 649.60 L 435.60 651.60 L 436.00 653.70 L 435.80 655.80 L 435.20 657.90 L 433.90 659.80 L 373.50 728.80 L 370.90 730.70 L 367.70 731.60 Z M 413.20 636.90 L 411.70 637.10 L 409.70 638.50 L 348.50 708.60 L 348.10 709.70 L 348.30 712.10 L 349.70 714.10 L 364.10 726.80 L 366.20 727.80 L 368.70 727.70 L 370.70 726.30 L 431.90 656.20 L 432.30 655.10 L 432.10 652.70 L 430.70 650.70 L 416.30 638.00 L 414.90 637.20 L 413.20 636.90 Z" fill="#141619" fill-rule="nonzero" node-id="170" stroke="none" target-height="98.39996" target-width="91.600006" target-x="344.4" target-y="633.2"/><path d="M 326.80 655.80 L 356.70 648.10 L 358.10 647.20 L 360.50 644.80 L 361.80 641.70 L 362.10 640.00 L 361.90 636.40 L 360.40 633.10 L 358.00 630.50 L 355.10 629.00 L 353.50 628.60 L 350.10 628.80 L 328.10 634.10" fill="#ffffff" fill-rule="nonzero" node-id="172" stroke="none" target-height="27.200012" target-width="35.30002" target-x="326.8" target-y="628.6"/><path d="M 326.80 657.60 L 325.60 657.10 L 324.90 656.00 L 325.30 654.70 L 326.30 654.00 L 356.10 646.30 L 358.40 644.50 L 359.90 641.70 L 360.30 640.10 L 360.10 636.80 L 359.20 634.70 L 358.00 633.00 L 356.40 631.60 L 354.60 630.70 L 352.60 630.40 L 350.50 630.60 L 328.50 635.90 L 327.20 635.70 L 326.40 634.50 L 326.60 633.20 L 327.60 632.40 L 349.60 627.00 L 353.70 626.80 L 355.60 627.20 L 359.10 629.00 L 361.90 632.00 L 363.60 635.90 L 364.00 638.20 L 363.90 640.50 L 363.40 642.80 L 362.50 644.90 L 361.20 646.80 L 359.60 648.40 L 357.70 649.60 L 355.50 650.40 L 326.80 657.60 Z" fill="#141619" fill-rule="nonzero" node-id="174" stroke="none" target-height="30.799988" target-width="39.100006" target-x="324.9" target-y="626.8"/><path d="M 151.10 739.60 L 176.00 760.80 L 184.30 766.20 L 193.20 770.50 L 197.90 772.10 L 204.70 773.30 L 208.70 773.50 L 214.60 773.40 L 220.80 772.60 L 229.00 770.50 L 236.90 767.00 L 240.50 764.70 L 243.90 762.10 L 287.30 723.70 L 289.20 720.10 L 289.80 716.20 L 289.00 712.20 L 286.90 708.60 L 242.30 657.70 L 240.70 656.20 L 237.20 654.30 L 233.20 653.70 L 231.20 653.90 L 227.50 655.40 L 192.30 686.00" fill="#ffdccd" fill-rule="nonzero" node-id="176" stroke="none" target-height="119.79999" target-width="138.69998" target-x="151.1" target-y="653.7"/><path d="M 210.20 775.40 L 201.70 774.70 L 197.50 773.90 L 192.60 772.20 L 183.50 767.90 L 175.00 762.30 L 171.00 759.10 L 149.90 740.90 L 149.30 740.10 L 149.20 739.20 L 149.60 738.30 L 150.40 737.70 L 151.40 737.70 L 152.30 738.20 L 177.10 759.40 L 181.10 762.10 L 189.50 766.80 L 198.50 770.40 L 201.70 771.00 L 209.00 771.70 L 214.80 771.60 L 220.80 770.80 L 228.60 768.70 L 236.10 765.40 L 239.50 763.20 L 242.70 760.70 L 284.60 723.90 L 286.80 721.10 L 287.50 719.50 L 288.00 717.00 L 287.80 714.50 L 286.60 711.30 L 240.90 658.90 L 239.60 657.70 L 236.60 656.10 L 234.10 655.60 L 231.60 655.70 L 228.40 656.90 L 193.50 687.40 L 192.20 687.90 L 190.90 687.20 L 190.50 685.90 L 191.10 684.70 L 224.50 655.20 L 226.50 653.80 L 228.70 652.70 L 233.20 651.90 L 237.80 652.60 L 239.90 653.50 L 241.90 654.80 L 243.70 656.50 L 288.30 707.40 L 289.70 709.50 L 290.80 711.60 L 291.40 713.80 L 291.50 718.40 L 290.00 722.80 L 288.70 724.80 L 287.00 726.60 L 245.10 763.50 L 241.80 766.10 L 238.20 768.30 L 234.40 770.30 L 226.50 773.20 L 222.40 774.20 L 216.20 775.10 L 210.20 775.40 Z" fill="#141619" fill-rule="nonzero" node-id="178" stroke="none" target-height="123.5" target-width="142.3" target-x="149.2" target-y="651.9"/><path d="M 379.80 609.10 L 288.80 687.80 L 262.00 656.70 L 295.80 628.30 L 299.10 626.20 L 302.40 624.40 L 305.70 623.10 L 326.30 617.90 L 329.40 616.70 L 332.50 615.20 L 335.40 613.20 L 363.10 589.20 L 366.30 587.20 L 370.00 586.10 L 371.90 586.10 L 375.80 586.70 L 377.60 587.50 L 380.70 589.70 L 383.00 592.80 L 384.30 596.60 L 384.40 600.60 L 383.40 604.30 L 382.40 606.10 L 379.80 609.10 Z" fill="#ffffff" fill-rule="nonzero" node-id="180" stroke="none" target-height="101.70001" target-width="122.399994" target-x="262" target-y="586.1"/><path d="M 288.80 689.70 L 287.40 689.00 L 260.60 657.90 L 260.30 657.30 L 260.40 655.90 L 294.70 626.90 L 298.10 624.60 L 305.30 621.40 L 325.80 616.10 L 331.60 613.60 L 334.20 611.80 L 361.80 587.90 L 365.60 585.50 L 369.80 584.40 L 374.10 584.50 L 378.30 585.90 L 381.80 588.40 L 384.50 591.90 L 386.00 596.30 L 386.20 600.70 L 385.00 605.00 L 382.70 608.80 L 290.00 689.20 L 288.80 689.70 Z M 264.60 656.90 L 289.00 685.30 L 378.60 607.70 L 380.40 605.80 L 381.70 603.60 L 382.50 601.20 L 382.70 598.70 L 382.30 596.20 L 381.40 593.70 L 380.00 591.70 L 378.10 590.00 L 376.00 588.80 L 373.60 588.10 L 371.10 587.90 L 368.70 588.30 L 366.40 589.20 L 364.40 590.60 L 336.60 614.60 L 333.60 616.70 L 327.20 619.60 L 306.80 624.80 L 300.20 627.70 L 297.00 629.80 Z" fill="#141619" fill-rule="nonzero" node-id="182" stroke="none" target-height="105.29999" target-width="125.900024" target-x="260.3" target-y="584.4"/><path d="M 343.30 640.50 L 363.90 622.70 L 366.00 620.00 L 366.90 616.60 L 366.50 613.20 L 364.80 610.20 L 363.50 608.90 L 360.40 607.40 L 356.90 607.10 L 353.60 608.20 L 352.20 609.30 L 322.70 634.70" fill="#ffffff" fill-rule="nonzero" node-id="184" stroke="none" target-height="33.400024" target-width="44.19998" target-x="322.7" target-y="607.1"/><path d="M 343.30 642.30 L 342.30 642.00 L 341.60 641.10 L 341.60 640.00 L 342.20 639.10 L 362.70 621.30 L 363.90 619.90 L 364.70 618.30 L 365.10 616.50 L 365.00 614.70 L 364.40 613.00 L 363.40 611.40 L 361.90 610.10 L 360.30 609.30 L 358.50 608.90 L 356.70 609.00 L 355.00 609.60 L 353.40 610.60 L 323.90 636.10 L 323.30 636.40 L 321.90 636.30 L 321.00 635.20 L 321.10 633.90 L 351.00 607.90 L 352.60 606.60 L 356.10 605.10 L 359.90 604.90 L 361.80 605.40 L 363.60 606.10 L 366.60 608.50 L 368.60 611.80 L 369.10 613.80 L 369.20 615.80 L 368.50 619.50 L 366.50 622.70 L 365.00 624.10 L 344.50 641.90 L 343.30 642.30 Z" fill="#141619" fill-rule="nonzero" node-id="186" stroke="none" target-height="37.399963" target-width="48.200012" target-x="321" target-y="604.9"/><g node-id="216"><path d="M 223.80 649.20 L 238.30 636.60 L 239.80 635.60 L 241.30 635.10 L 243.00 635.00 L 244.70 635.30 L 246.10 636.10 L 247.50 637.20 L 307.90 706.30 L 308.90 707.80 L 309.50 709.30 L 309.60 711.00 L 309.20 712.70 L 308.50 714.10 L 307.30 715.50 L 292.90 728.10 L 291.40 729.10 L 289.90 729.60 L 288.20 729.70 L 286.50 729.40 L 285.00 728.70 L 283.70 727.50 L 223.20 658.50 L 222.30 657.00 L 221.70 655.40 L 221.60 653.70 L 221.90 652.10 L 222.70 650.60 L 223.80 649.20 Z" fill="#ffffff" fill-rule="nonzero" group-id="2" node-id="190" stroke="none" target-height="94.70001" target-width="88" target-x="221.6" target-y="635"/></g><path d="M 288.60 731.60 L 286.40 731.30 L 284.90 730.80 L 282.30 728.80 L 221.80 659.80 L 220.60 657.90 L 219.90 655.80 L 219.80 653.70 L 220.20 651.60 L 221.10 649.60 L 222.60 647.90 L 237.00 635.30 L 238.90 634.00 L 240.90 633.40 L 243.10 633.20 L 245.20 633.60 L 247.10 634.60 L 248.80 636.10 L 309.30 705.10 L 310.50 707.00 L 311.20 709.00 L 311.30 711.20 L 310.90 713.30 L 310.00 715.20 L 308.50 716.90 L 294.10 729.50 L 292.40 730.70 L 290.60 731.30 L 288.60 731.60 Z M 242.50 636.90 L 240.90 637.20 L 239.40 638.00 L 225.00 650.70 L 223.60 652.70 L 223.50 655.10 L 223.80 656.20 L 285.00 726.30 L 285.90 727.10 L 288.20 727.90 L 289.50 727.80 L 291.70 726.80 L 306.10 714.10 L 307.40 712.10 L 307.60 709.70 L 307.20 708.60 L 246.10 638.50 L 244.10 637.10 L 242.80 636.90 Z" fill="#141619" fill-rule="nonzero" node-id="193" stroke="none" target-height="98.39996" target-width="91.499985" target-x="219.8" target-y="633.2"/><path d="M 840.50 547.80 L 840.20 557.00 L 839.50 566.00 L 838.30 574.80 L 836.70 583.40 L 834.60 591.80 L 832.00 600.20 L 829.10 608.30 L 825.80 616.20 L 822.00 623.90 L 817.90 631.40 L 813.40 638.70 L 808.50 645.60 L 803.40 652.30 L 797.90 658.70 L 792.00 664.90 L 785.90 670.70 L 779.40 676.30 L 772.70 681.40 L 765.80 686.30 L 758.50 690.80 L 751.00 694.90 L 743.40 698.60 L 735.50 702.00 L 727.30 704.90 L 719.00 707.50 L 710.50 709.60 L 701.90 711.20 L 693.10 712.40 L 684.10 713.10 L 674.90 713.40 L 665.70 713.10 L 656.80 712.40 L 648.00 711.20 L 639.40 709.60 L 630.90 707.50 L 622.50 704.90 L 614.40 702.00 L 606.50 698.60 L 598.80 694.90 L 591.40 690.80 L 584.10 686.30 L 577.10 681.40 L 570.40 676.30 L 564.00 670.70 L 557.90 664.90 L 552.00 658.70 L 546.50 652.30 L 541.30 645.60 L 536.50 638.70 L 532.00 631.40 L 527.80 623.90 L 524.10 616.20 L 520.80 608.30 L 517.80 600.20 L 515.30 591.80 L 513.20 583.40 L 511.50 574.80 L 510.40 566.00 L 509.60 557.00 L 509.40 547.80 L 509.60 538.60 L 510.40 529.60 L 511.50 520.90 L 513.20 512.20 L 515.30 503.80 L 517.80 495.40 L 520.80 487.30 L 524.10 479.40 L 527.80 471.70 L 532.00 464.30 L 536.50 457.00 L 541.30 450.00 L 546.50 443.30 L 552.00 436.90 L 557.90 430.70 L 564.00 424.90 L 570.40 419.40 L 577.10 414.20 L 584.10 409.40 L 591.40 404.90 L 598.80 400.70 L 606.50 397.00 L 614.40 393.70 L 622.50 390.70 L 630.90 388.20 L 639.40 386.10 L 648.00 384.40 L 656.80 383.20 L 665.70 382.50 L 674.90 382.20 L 684.10 382.50 L 693.10 383.20 L 701.90 384.40 L 710.50 386.10 L 719.00 388.20 L 727.30 390.70 L 735.50 393.70 L 743.40 397.00 L 751.00 400.70 L 758.50 404.90 L 765.80 409.40 L 772.70 414.20 L 779.40 419.40 L 785.90 424.90 L 792.00 430.70 L 797.90 436.90 L 803.40 443.30 L 808.50 450.00 L 813.40 457.00 L 817.90 464.30 L 822.00 471.70 L 825.80 479.40 L 829.10 487.30 L 832.00 495.40 L 834.60 503.80 L 836.70 512.20 L 838.30 520.90 L 839.50 529.60 L 840.20 538.60 L 840.50 547.80 Z" fill="#ffffff" fill-rule="nonzero" node-id="195" stroke="none" target-height="331.2" target-width="331.1" target-x="509.4" target-y="382.2"/><path d="M 674.90 715.20 L 665.70 715.00 L 656.60 714.20 L 647.70 713.00 L 639.00 711.40 L 630.50 709.20 L 622.00 706.70 L 613.80 703.70 L 605.80 700.30 L 598.10 696.50 L 590.50 692.30 L 583.20 687.80 L 576.10 682.90 L 569.40 677.60 L 562.90 672.10 L 556.60 666.10 L 550.70 659.90 L 545.10 653.40 L 539.90 646.60 L 535.00 639.60 L 530.40 632.20 L 526.30 624.70 L 522.50 616.90 L 519.10 609.00 L 516.10 600.70 L 513.50 592.30 L 511.40 583.70 L 509.70 575.00 L 508.50 566.20 L 507.80 557.10 L 507.50 547.80 L 507.80 538.50 L 508.50 529.50 L 509.70 520.60 L 511.40 511.90 L 513.50 503.40 L 516.10 494.90 L 519.10 486.70 L 522.50 478.70 L 526.30 470.90 L 530.40 463.40 L 535.00 456.00 L 539.90 449.00 L 545.10 442.20 L 550.70 435.70 L 556.60 429.50 L 562.90 423.60 L 569.40 418.00 L 576.10 412.80 L 583.20 407.90 L 590.50 403.30 L 598.10 399.10 L 605.80 395.40 L 613.80 392.00 L 622.00 389.00 L 630.50 386.40 L 639.00 384.30 L 647.70 382.60 L 656.60 381.40 L 665.70 380.70 L 674.90 380.40 L 684.20 380.70 L 693.30 381.40 L 702.20 382.60 L 710.90 384.30 L 719.40 386.40 L 727.90 389.00 L 736.10 392.00 L 744.10 395.40 L 751.80 399.10 L 759.40 403.30 L 766.70 407.90 L 773.80 412.80 L 780.50 418.00 L 787.00 423.60 L 793.30 429.50 L 799.20 435.70 L 804.80 442.20 L 810.00 449.00 L 814.90 456.10 L 819.50 463.40 L 823.60 470.90 L 827.40 478.70 L 830.80 486.70 L 833.80 494.90 L 836.40 503.40 L 838.50 511.90 L 840.10 520.60 L 841.30 529.50 L 842.10 538.50 L 842.30 547.80 L 842.10 557.10 L 841.30 566.20 L 840.10 575.00 L 838.50 583.70 L 836.40 592.30 L 833.80 600.70 L 830.80 608.90 L 827.40 616.90 L 823.60 624.70 L 819.50 632.20 L 814.90 639.60 L 810.00 646.60 L 804.80 653.40 L 799.20 659.90 L 793.30 666.10 L 787.00 672.10 L 780.50 677.60 L 773.80 682.90 L 766.70 687.80 L 759.40 692.30 L 751.80 696.50 L 744.10 700.30 L 736.10 703.70 L 727.90 706.70 L 719.40 709.20 L 710.90 711.40 L 702.20 713.00 L 693.30 714.20 L 684.20 715.00 L 674.90 715.20 Z M 674.90 384.10 L 665.90 384.30 L 657.00 385.10 L 648.30 386.20 L 639.80 387.90 L 631.50 389.90 L 623.20 392.50 L 615.10 395.40 L 607.30 398.70 L 599.70 402.40 L 592.40 406.50 L 585.20 410.90 L 578.30 415.70 L 571.70 420.80 L 565.30 426.30 L 559.20 432.10 L 553.40 438.20 L 548.00 444.50 L 542.90 451.20 L 538.10 458.10 L 533.60 465.20 L 529.50 472.60 L 525.80 480.20 L 522.50 488.00 L 519.60 496.10 L 517.10 504.30 L 515.00 512.70 L 513.40 521.20 L 512.20 529.90 L 511.50 538.70 L 511.20 547.80 L 511.50 556.90 L 512.20 565.80 L 513.40 574.40 L 515.00 583.00 L 517.10 591.30 L 519.60 599.60 L 522.50 607.60 L 525.80 615.40 L 529.50 623.00 L 533.60 630.40 L 538.10 637.60 L 542.90 644.50 L 548.00 651.10 L 553.40 657.50 L 559.20 663.60 L 565.30 669.30 L 571.70 674.80 L 578.30 679.90 L 585.20 684.70 L 592.40 689.20 L 599.70 693.30 L 607.30 697.00 L 615.10 700.30 L 623.20 703.20 L 631.50 705.70 L 639.80 707.80 L 648.30 709.40 L 657.00 710.60 L 665.90 711.30 L 674.90 711.60 L 684.00 711.30 L 692.90 710.60 L 701.60 709.40 L 710.10 707.80 L 718.40 705.70 L 726.70 703.20 L 734.70 700.30 L 742.50 697.00 L 750.10 693.30 L 757.50 689.20 L 764.70 684.70 L 771.60 679.90 L 778.20 674.80 L 784.60 669.30 L 790.70 663.60 L 796.50 657.50 L 801.90 651.10 L 807.00 644.50 L 811.80 637.60 L 816.30 630.40 L 820.40 623.00 L 824.10 615.40 L 827.40 607.60 L 830.30 599.60 L 832.80 591.30 L 834.90 583.00 L 836.50 574.40 L 837.70 565.80 L 838.40 556.90 L 838.70 547.80 L 838.40 538.70 L 837.70 529.90 L 836.50 521.20 L 834.90 512.70 L 832.80 504.30 L 830.30 496.10 L 827.40 488.00 L 824.10 480.20 L 820.40 472.60 L 816.30 465.20 L 811.80 458.10 L 807.00 451.20 L 801.90 444.50 L 796.50 438.20 L 790.70 432.10 L 784.60 426.30 L 778.20 420.80 L 771.60 415.70 L 764.70 410.90 L 757.50 406.50 L 750.10 402.40 L 742.50 398.70 L 734.70 395.40 L 726.70 392.50 L 718.40 389.90 L 710.10 387.90 L 701.60 386.20 L 692.90 385.10 L 684.00 384.30 L 674.90 384.10 Z" fill="#141619" fill-rule="nonzero" node-id="197" stroke="none" target-height="334.80002" target-width="334.8" target-x="507.5" target-y="380.4"/><path d="M 840.50 547.80 L 840.20 557.50 L 839.20 567.00 L 837.70 576.10 L 835.50 585.10 L 832.80 594.00 L 829.50 602.50 L 825.70 610.70 L 821.40 618.60 L 816.50 626.30 L 811.30 633.60 L 805.60 640.50 L 799.40 647.00 L 792.90 653.20 L 786.00 658.90 L 778.70 664.10 L 771.00 668.90 L 763.10 673.30 L 754.90 677.10 L 746.40 680.30 L 737.50 683.10 L 728.60 685.20 L 719.40 686.80 L 709.90 687.80 L 700.20 688.10 L 690.50 687.80 L 681.10 686.80 L 671.90 685.20 L 662.90 683.10 L 654.10 680.30 L 645.60 677.10 L 637.40 673.30 L 629.40 668.90 L 621.80 664.10 L 614.50 658.90 L 607.60 653.20 L 601.00 647.00 L 594.90 640.50 L 589.20 633.60 L 583.90 626.30 L 579.10 618.60 L 574.80 610.70 L 571.00 602.50 L 567.70 594.00 L 565.00 585.10 L 562.80 576.10 L 561.30 567.00 L 560.30 557.50 L 560.00 547.80 L 560.30 538.10 L 561.30 528.70 L 562.80 519.50 L 565.00 510.50 L 567.70 501.70 L 571.00 493.20 L 574.80 485.00 L 579.10 477.00 L 583.90 469.40 L 589.20 462.10 L 594.90 455.20 L 601.00 448.60 L 607.60 442.50 L 614.50 436.80 L 621.80 431.50 L 629.40 426.70 L 637.40 422.40 L 645.60 418.60 L 654.10 415.30 L 662.90 412.60 L 671.90 410.40 L 681.10 408.80 L 690.50 407.90 L 700.20 407.50 L 709.90 407.90 L 719.40 408.80 L 728.60 410.40 L 737.50 412.60 L 746.40 415.30 L 754.90 418.60 L 763.10 422.40 L 771.00 426.70 L 778.70 431.50 L 786.00 436.80 L 792.90 442.50 L 799.40 448.60 L 805.60 455.20 L 811.30 462.10 L 816.50 469.40 L 821.40 477.00 L 825.70 485.00 L 829.50 493.20 L 832.80 501.70 L 835.50 510.50 L 837.70 519.50 L 839.20 528.70 L 840.20 538.10 L 840.50 547.80 Z" fill="#5779eb" fill-rule="nonzero" node-id="199" stroke="none" target-height="280.59998" target-width="280.5" target-x="560" target-y="407.5"/><path d="M 700.20 695.40 L 692.10 695.20 L 684.10 694.50 L 676.20 693.50 L 668.60 692.00 L 661.00 690.10 L 651.80 687.20 L 642.80 683.80 L 634.20 679.80 L 625.80 675.20 L 617.70 670.20 L 610.10 664.60 L 602.80 658.60 L 595.90 652.10 L 589.40 645.20 L 583.40 638.00 L 577.90 630.30 L 572.80 622.30 L 568.30 613.90 L 564.30 605.30 L 560.80 596.30 L 557.90 587.00 L 556.10 579.50 L 554.60 571.80 L 553.50 564.00 L 552.90 556.00 L 552.60 547.80 L 552.90 539.60 L 553.50 531.60 L 554.60 523.80 L 556.10 516.10 L 557.90 508.60 L 560.80 499.30 L 564.30 490.40 L 568.30 481.70 L 572.80 473.40 L 577.90 465.30 L 583.40 457.70 L 589.40 450.40 L 595.90 443.50 L 602.80 437.00 L 610.10 431.00 L 617.70 425.50 L 625.80 420.40 L 634.20 415.90 L 642.80 411.90 L 651.80 408.40 L 661.00 405.50 L 668.60 403.60 L 676.20 402.20 L 684.10 401.10 L 692.10 400.50 L 700.20 400.20 L 708.40 400.50 L 716.40 401.10 L 724.20 402.20 L 731.90 403.60 L 739.40 405.50 L 748.70 408.40 L 757.70 411.90 L 766.30 415.90 L 774.70 420.40 L 782.70 425.50 L 790.40 431.00 L 797.70 437.00 L 804.60 443.50 L 811.00 450.40 L 817.00 457.70 L 822.60 465.30 L 827.70 473.40 L 832.20 481.70 L 836.20 490.40 L 839.60 499.30 L 842.50 508.60 L 844.40 516.20 L 845.90 523.80 L 846.90 531.60 L 847.60 539.60 L 847.80 547.80 L 847.60 556.00 L 846.90 564.00 L 845.90 571.80 L 844.40 579.50 L 842.50 587.00 L 839.60 596.30 L 836.20 605.30 L 832.20 613.90 L 827.70 622.30 L 822.60 630.30 L 817.00 638.00 L 811.00 645.20 L 804.60 652.10 L 797.70 658.60 L 790.40 664.60 L 782.70 670.20 L 774.70 675.20 L 766.30 679.80 L 757.70 683.80 L 748.70 687.20 L 739.40 690.10 L 731.90 692.00 L 724.20 693.50 L 716.40 694.50 L 708.40 695.20 L 700.20 695.40 Z M 700.20 414.90 L 691.10 415.20 L 682.10 416.10 L 673.40 417.60 L 664.90 419.60 L 656.60 422.20 L 648.50 425.30 L 640.70 428.90 L 633.20 433.00 L 625.90 437.60 L 619.00 442.60 L 612.50 448.00 L 606.20 453.90 L 600.40 460.10 L 595.00 466.60 L 590.00 473.50 L 585.40 480.80 L 581.30 488.30 L 577.70 496.10 L 574.60 504.20 L 572.00 512.50 L 570.00 521.00 L 568.50 529.70 L 567.60 538.70 L 567.20 547.90 L 567.60 557.00 L 568.50 566.00 L 569.90 574.70 L 572.00 583.20 L 574.60 591.60 L 577.70 599.60 L 581.30 607.40 L 585.40 614.90 L 590.00 622.20 L 595.00 629.10 L 600.40 635.60 L 606.20 641.90 L 612.50 647.70 L 619.00 653.10 L 625.90 658.10 L 633.20 662.70 L 640.70 666.80 L 648.50 670.40 L 656.50 673.50 L 664.90 676.10 L 673.40 678.20 L 682.10 679.60 L 691.10 680.50 L 700.20 680.90 L 709.40 680.50 L 718.40 679.60 L 727.10 678.20 L 735.60 676.10 L 743.90 673.50 L 752.00 670.40 L 759.80 666.80 L 767.30 662.70 L 774.60 658.10 L 781.50 653.10 L 788.00 647.70 L 794.20 641.90 L 800.10 635.60 L 805.50 629.10 L 810.50 622.20 L 815.10 614.90 L 819.20 607.40 L 822.80 599.60 L 825.90 591.60 L 828.50 583.20 L 830.50 574.70 L 832.00 566.00 L 832.90 557.00 L 833.20 547.90 L 832.90 538.70 L 832.00 529.70 L 830.50 521.00 L 828.50 512.50 L 825.90 504.20 L 822.80 496.10 L 819.10 488.30 L 815.00 480.80 L 810.50 473.50 L 805.50 466.60 L 800.10 460.10 L 794.20 453.90 L 788.00 448.00 L 781.50 442.60 L 774.60 437.60 L 767.30 433.00 L 759.80 428.90 L 752.00 425.30 L 743.90 422.20 L 735.50 419.60 L 727.10 417.60 L 718.40 416.10 L 709.40 415.20 L 700.20 414.90 Z" fill="#3e6fcd" fill-rule="nonzero" node-id="201" stroke="none" target-height="295.2" target-width="295.2" target-x="552.6" target-y="400.2"/><path d="M 897.20 498.50 L 892.40 498.70 L 887.70 499.40 L 883.10 500.60 L 878.60 502.20 L 874.30 504.30 L 870.30 506.80 L 866.50 509.70 L 860.80 514.90 L 858.00 516.80 L 854.40 518.70 L 846.30 521.90 L 834.00 524.90 L 826.00 526.10 L 817.70 526.80 L 809.50 526.90 L 804.00 526.60 L 793.70 525.10 L 788.70 523.90 L 784.30 522.30 L 780.20 520.40 L 777.40 518.70 L 772.70 514.70 L 764.30 504.00 L 760.70 500.30 L 756.80 497.00 L 748.40 491.30 L 739.20 487.00 L 734.40 485.50 L 724.50 483.40 L 719.40 483.00 L 714.20 483.00 L 709.10 483.40 L 704.00 484.20 L 698.80 485.40 L 693.70 487.10 L 688.90 489.20 L 684.30 491.50 L 680.00 494.30 L 675.90 497.30 L 668.50 504.30 L 662.30 512.30 L 657.50 521.20 L 655.50 525.90 L 654.00 530.80 L 652.90 535.80 L 652.10 541.00 L 651.80 546.30 L 651.90 551.60 L 652.40 556.80 L 653.30 561.90 L 654.60 566.80 L 656.30 571.70 L 658.40 576.30 L 660.80 580.80 L 666.60 589.10 L 670.00 592.80 L 677.60 599.60 L 681.80 602.50 L 686.30 605.10 L 691.00 607.30 L 696.00 609.20 L 701.10 610.70 L 706.20 611.80 L 711.30 612.40 L 716.40 612.60 L 726.60 611.80 L 731.50 610.80 L 741.20 607.70 L 745.80 605.60 L 750.20 603.20 L 754.50 600.30 L 758.50 597.20 L 762.30 593.70 L 765.80 589.80 L 769.10 585.60 L 772.60 582.10 L 776.20 579.00 L 779.90 576.30 L 783.80 574.00 L 789.10 571.50 L 794.60 569.50 L 800.20 568.20 L 805.90 567.30 L 811.60 566.90 L 817.40 566.90 L 828.60 568.10 L 834.00 569.10 L 841.90 571.10 L 849.00 573.50 L 855.70 576.20 L 861.20 579.00 L 866.10 581.90 L 874.10 587.50 L 878.60 589.70 L 883.10 591.40 L 887.70 592.60 L 892.50 593.30 L 897.30 593.50 L 902.00 593.30 L 906.60 592.60 L 911.30 591.40 L 915.80 589.80 L 920.10 587.70 L 924.20 585.10 L 928.20 582.10 L 931.80 578.60 L 934.90 575.00 L 937.70 571.00 L 940.00 566.80 L 941.80 562.40 L 943.20 557.90 L 944.20 553.30 L 944.70 548.50 L 944.70 543.80 L 944.30 539.00 L 943.30 534.30 L 941.80 529.50 L 939.80 524.90 L 937.50 520.70 L 934.70 516.70 L 931.60 513.10 L 928.10 509.80 L 924.40 507.00 L 920.40 504.50 L 916.10 502.30 L 911.60 500.70 L 907.00 499.40 L 902.20 498.70 L 897.20 498.40 Z" fill="#ffffff" fill-rule="nonzero" node-id="203" stroke="none" target-height="129.59998" target-width="292.90002" target-x="651.8" target-y="483"/><path d="M 716.70 614.40 L 710.70 614.20 L 704.90 613.40 L 699.30 612.20 L 693.90 610.40 L 688.60 608.20 L 683.60 605.70 L 678.80 602.70 L 674.30 599.30 L 670.10 595.50 L 666.30 591.40 L 662.80 587.00 L 659.60 582.20 L 656.80 577.20 L 654.50 572.00 L 652.70 566.50 L 651.30 560.60 L 650.40 554.70 L 650.00 548.90 L 650.20 543.20 L 650.80 537.50 L 651.90 531.90 L 653.50 526.50 L 655.50 521.20 L 658.00 516.20 L 660.90 511.30 L 664.20 506.80 L 667.80 502.50 L 671.90 498.40 L 676.30 494.80 L 681.00 491.50 L 686.10 488.60 L 691.50 486.10 L 697.20 484.10 L 702.80 482.70 L 708.40 481.70 L 714.10 481.20 L 719.90 481.30 L 725.50 481.80 L 731.00 482.80 L 736.40 484.20 L 741.80 486.10 L 746.90 488.50 L 751.80 491.20 L 756.50 494.50 L 760.90 498.10 L 765.00 502.10 L 768.80 506.50 L 774.50 513.90 L 777.10 516.30 L 780.40 518.40 L 784.50 520.40 L 793.10 523.20 L 804.30 524.80 L 815.60 525.10 L 821.40 524.70 L 830.10 523.70 L 838.20 522.20 L 848.20 519.40 L 856.30 515.70 L 859.40 513.70 L 865.20 508.50 L 868.90 505.60 L 872.70 503.10 L 876.80 501.10 L 881.00 499.40 L 885.30 498.10 L 889.70 497.20 L 894.20 496.70 L 898.70 496.70 L 903.20 497.00 L 907.60 497.70 L 912.00 498.90 L 916.30 500.50 L 920.40 502.40 L 924.40 504.80 L 928.30 507.70 L 931.90 510.90 L 935.10 514.30 L 937.90 517.90 L 940.30 521.80 L 942.30 525.90 L 943.90 530.00 L 945.20 534.30 L 946.10 538.70 L 946.50 543.20 L 946.60 547.70 L 946.20 552.20 L 945.40 556.70 L 944.30 561.10 L 942.70 565.30 L 940.60 569.50 L 938.10 573.70 L 935.20 577.50 L 932.10 581.00 L 928.70 584.10 L 925.10 586.80 L 921.20 589.20 L 917.20 591.20 L 913.00 592.80 L 908.70 594.00 L 904.30 594.90 L 899.80 595.30 L 895.30 595.40 L 890.80 595.00 L 886.30 594.20 L 881.90 593.00 L 877.50 591.30 L 873.20 589.20 L 865.00 583.30 L 860.20 580.50 L 854.80 577.80 L 848.30 575.20 L 841.40 572.90 L 833.70 570.90 L 823.00 569.20 L 811.80 568.80 L 806.30 569.20 L 800.70 570.00 L 795.30 571.30 L 790.00 573.20 L 784.70 575.60 L 781.00 577.80 L 774.00 583.40 L 770.60 586.80 L 767.30 591.00 L 763.70 594.90 L 759.90 598.40 L 755.80 601.70 L 751.50 604.60 L 747.00 607.10 L 742.30 609.30 L 737.40 611.10 L 732.40 612.50 L 727.20 613.60 L 722.00 614.20 L 716.70 614.40 Z M 716.70 484.90 L 711.10 485.10 L 705.70 485.80 L 700.40 487.00 L 695.30 488.60 L 690.40 490.60 L 685.70 493.00 L 681.20 495.70 L 677.00 498.90 L 673.00 502.40 L 669.40 506.20 L 666.10 510.30 L 663.00 514.70 L 660.40 519.30 L 658.20 524.20 L 656.40 529.40 L 655.00 534.80 L 654.10 540.30 L 653.60 545.70 L 653.70 551.10 L 654.20 556.40 L 655.20 561.70 L 656.50 566.80 L 658.30 571.70 L 660.50 576.50 L 663.10 581.10 L 666.10 585.40 L 669.40 589.50 L 673.10 593.40 L 677.10 596.90 L 681.40 600.10 L 686.10 602.90 L 691.10 605.40 L 696.30 607.40 L 701.60 609.00 L 706.80 610.00 L 712.10 610.60 L 717.50 610.80 L 722.70 610.50 L 727.90 609.70 L 733.10 608.60 L 738.10 607.00 L 743.00 605.00 L 747.70 602.60 L 752.20 599.70 L 756.50 596.50 L 760.50 593.00 L 764.20 589.00 L 767.80 584.40 L 771.20 580.90 L 774.70 577.90 L 781.80 573.00 L 786.90 570.50 L 792.00 568.50 L 797.10 567.00 L 807.30 565.30 L 812.20 565.10 L 819.50 565.20 L 826.10 565.90 L 833.10 567.00 L 839.90 568.70 L 846.50 570.70 L 852.50 572.90 L 863.10 577.90 L 867.40 580.60 L 875.00 585.90 L 879.00 587.90 L 883.10 589.50 L 887.20 590.60 L 895.50 591.70 L 903.80 591.20 L 907.90 590.50 L 915.80 587.80 L 923.10 583.70 L 926.50 581.20 L 929.60 578.30 L 932.50 575.10 L 935.20 571.60 L 937.50 567.70 L 939.40 563.80 L 940.80 559.90 L 941.90 555.80 L 943.00 547.50 L 942.50 539.20 L 940.50 531.10 L 937.10 523.50 L 934.90 519.90 L 932.30 516.60 L 929.40 513.40 L 926.00 510.40 L 922.40 507.80 L 918.70 505.60 L 914.90 503.70 L 910.90 502.30 L 906.80 501.20 L 898.60 500.20 L 890.30 500.80 L 886.20 501.60 L 878.30 504.30 L 874.60 506.20 L 871.00 508.50 L 867.60 511.20 L 861.80 516.40 L 858.60 518.60 L 854.40 520.70 L 845.10 524.10 L 834.00 526.80 L 822.10 528.30 L 815.90 528.70 L 804.00 528.40 L 794.70 527.20 L 789.80 526.10 L 785.00 524.60 L 780.50 522.60 L 776.20 520.10 L 771.30 515.90 L 766.20 509.00 L 762.80 505.00 L 759.20 501.40 L 755.20 498.10 L 751.00 495.10 L 746.60 492.40 L 742.00 490.20 L 737.20 488.30 L 732.20 486.80 L 727.20 485.80 L 722.00 485.10 L 716.70 484.90 Z" fill="#141619" fill-rule="nonzero" node-id="205" stroke="none" target-height="133.20001" target-width="296.59998" target-x="650" target-y="481.2"/><path d="M 691.20 264.10 L 691.20 287.60 L 690.90 289.00 L 689.50 291.40 L 687.20 292.80 L 685.70 293.00 L 667.20 293.10 L 666.30 294.00 L 666.20 294.70 L 666.20 307.70 L 666.10 308.60 L 665.60 309.40 L 664.80 310.00 L 663.80 310.10 L 653.10 310.10 L 652.10 310.00 L 651.30 309.40 L 650.80 308.60 L 650.70 264.70 L 650.50 263.70 L 649.00 260.50 L 649.10 259.60 L 649.80 259.00 L 651.10 258.80 L 685.80 258.80 L 687.80 259.00 L 689.20 259.70 L 690.20 260.70 L 690.90 262.10 L 691.20 264.10 Z M 674.20 266.60 L 667.30 266.70 L 666.40 267.60 L 666.30 284.40 L 666.70 285.60 L 667.90 286.00 L 674.80 285.90 L 675.70 285.00 L 675.80 268.20 L 675.30 267.00 L 674.10 266.60 Z" fill="#5779eb" fill-rule="nonzero" node-id="207" stroke="none" target-height="51.30002" target-width="42.200012" target-x="649" target-y="258.8"/><path d="M 723.00 271.10 L 722.90 267.50 L 722.60 267.00 L 721.40 266.60 L 715.30 266.80 L 714.30 269.00 L 713.50 269.50 L 701.20 269.50 L 700.40 269.00 L 699.90 268.20 L 699.80 264.10 L 700.00 262.10 L 700.70 260.70 L 701.70 259.70 L 703.10 259.00 L 705.10 258.80 L 734.40 259.00 L 736.70 260.20 L 738.00 262.40 L 738.10 287.00 L 738.30 288.10 L 740.70 290.90 L 740.90 291.60 L 740.50 292.60 L 738.80 293.10 L 703.50 292.90 L 702.20 292.30 L 700.40 290.50 L 699.70 287.60 L 699.70 278.10 L 699.90 276.40 L 701.10 274.10 L 703.40 272.90 L 705.10 272.70 L 722.00 272.70 L 722.60 272.30 L 723.00 271.10 Z M 721.40 280.50 L 716.60 280.50 L 715.40 281.00 L 715.00 282.20 L 715.00 284.30 L 715.90 285.20 L 716.60 285.20 L 721.40 285.20 L 722.60 284.80 L 722.90 284.30 L 722.90 281.50 L 722.10 280.60 L 721.40 280.50 Z" fill="#5779eb" fill-rule="nonzero" node-id="209" stroke="none" target-height="34.30002" target-width="41.200012" target-x="699.7" target-y="258.8"/><path d="M 751.90 285.20 L 768.10 285.20 L 769.00 284.30 L 769.00 280.80 L 768.60 280.20 L 767.40 279.80 L 751.20 279.80 L 749.20 279.50 L 747.80 278.90 L 746.80 277.90 L 746.10 276.50 L 745.90 274.50 L 745.90 264.10 L 746.10 262.10 L 746.80 260.70 L 747.80 259.70 L 749.20 259.00 L 751.20 258.80 L 777.70 258.80 L 779.70 259.00 L 781.20 259.70 L 782.20 260.70 L 782.80 262.10 L 783.10 264.10 L 783.00 267.40 L 782.50 268.20 L 781.60 268.70 L 772.10 268.90 L 770.60 268.60 L 769.90 268.20 L 769.50 267.00 L 769.00 266.60 L 761.80 266.40 L 761.20 266.50 L 760.30 267.40 L 760.20 270.40 L 760.30 271.00 L 761.20 271.90 L 777.70 272.00 L 779.70 272.30 L 781.20 272.90 L 782.20 273.90 L 782.80 275.40 L 783.10 277.40 L 783.10 287.60 L 782.80 289.10 L 781.30 291.50 L 780.00 292.40 L 777.20 293.00 L 747.30 292.90 L 746.50 292.40 L 746.00 291.60 L 745.90 290.60 L 745.90 284.60 L 746.30 282.90 L 747.30 282.50 L 748.00 282.70 L 750.80 285.10 L 751.90 285.20 Z" fill="#5779eb" fill-rule="nonzero" node-id="211" stroke="none" target-height="34.200012" target-width="37.19995" target-x="745.9" target-y="258.8"/><path d="M 797.10 285.20 L 813.40 285.20 L 814.30 284.30 L 814.30 280.80 L 813.90 280.20 L 812.70 279.80 L 796.50 279.80 L 794.50 279.50 L 793.10 278.90 L 792.00 277.90 L 791.40 276.50 L 791.10 274.50 L 791.10 264.10 L 791.40 262.10 L 792.00 260.70 L 793.10 259.70 L 794.50 259.00 L 796.50 258.80 L 823.00 258.80 L 825.00 259.00 L 826.40 259.70 L 827.40 260.70 L 828.10 262.10 L 828.40 264.10 L 828.20 267.40 L 827.70 268.20 L 826.90 268.70 L 817.30 268.90 L 815.80 268.60 L 815.10 268.20 L 814.70 267.00 L 814.20 266.60 L 807.10 266.40 L 806.40 266.50 L 805.50 267.40 L 805.50 270.40 L 805.90 271.60 L 806.40 271.90 L 823.00 272.00 L 825.00 272.30 L 826.40 272.90 L 827.40 273.90 L 828.10 275.40 L 828.40 277.40 L 828.40 287.60 L 828.10 289.10 L 826.50 291.50 L 825.30 292.40 L 822.40 293.00 L 792.60 292.90 L 791.80 292.40 L 791.20 291.60 L 791.10 290.60 L 791.10 284.60 L 791.60 282.90 L 792.60 282.50 L 793.30 282.70 L 796.10 285.10 L 797.10 285.20 Z" fill="#5779eb" fill-rule="nonzero" node-id="213" stroke="none" target-height="34.200012" target-width="37.30005" target-x="791.1" target-y="258.8"/></svg>